<?xml version="1.0" encoding="utf-8"?>
<!-- Generator: Adobe Illustrator 25.4.1, SVG Export Plug-In . SVG Version: 6.00 Build 0)  -->
<svg version="1.1" id="Layer_1" xmlns="http://www.w3.org/2000/svg" xmlns:xlink="http://www.w3.org/1999/xlink" x="0px" y="0px"
	 viewBox="0 0 115.2 115.27" style="enable-background:new 0 0 115.2 115.27;" xml:space="preserve">
<style type="text/css">
	.st0{fill-rule:evenodd;clip-rule:evenodd;fill:#212121;}
</style>
<g>
	<path class="st0" d="M32.21,16.18c0-5.03-0.02-10.07,0.02-15.1c0-0.8-0.2-1.08-1.04-1.08C21.15,0.03,11.12,0.03,1.09,0
		C0.19,0,0,0.29,0.01,1.13c0.03,9.99,0.03,19.99,0,29.98c0,0.85,0.2,1.12,1.09,1.12c10.03-0.03,20.06-0.03,30.09,0
		c0.85,0,1.05-0.26,1.04-1.06C32.2,26.17,32.21,21.18,32.21,16.18z M26.75,27.73c-7.06-0.03-14.11-0.02-21.17,0
		c-0.71,0-0.94-0.2-0.94-0.93c0.03-7.09,0.02-14.19,0-21.28c0-0.67,0.2-0.88,0.87-0.88c7.09,0.02,14.19,0.03,21.28-0.01
		c0.82,0,0.86,0.36,0.86,0.99c-0.02,3.53-0.01,7.06-0.01,10.58c0,3.53-0.02,7.06,0.02,10.58C27.68,27.5,27.49,27.73,26.75,27.73z"/>
	<path class="st0" d="M23.02,10.16c0.01-0.69-0.15-0.95-0.9-0.95c-4.04,0.04-8.07,0.03-12.11,0c-0.64,0-0.89,0.13-0.89,0.84
		c0.03,4.07,0.03,8.15,0,12.22c-0.01,0.73,0.28,0.84,0.9,0.83c2.02-0.03,4.04-0.01,6.06-0.01c1.98,0,3.96-0.03,5.95,0.02
		c0.74,0.02,1.01-0.15,1-0.96C22.98,18.17,22.99,14.16,23.02,10.16z"/>
	<path class="st0" d="M115.19,1.06c0-0.83-0.25-1.06-1.06-1.05c-10.06,0.02-20.12,0.02-30.19,0c-0.79,0-0.98,0.25-0.97,1
		c0.02,10.06,0.02,20.13,0,30.19c0,0.83,0.22,1.05,1.05,1.04C89.01,32.2,94,32.22,99,32.22c5.07,0,10.14-0.01,15.2,0.02
		c0.76,0,1-0.21,1-0.99C115.17,21.18,115.17,11.12,115.19,1.06z M109.48,27.73c-6.91-0.03-13.82-0.03-20.73,0
		c-0.88,0-1.2-0.18-1.19-1.13c0.04-6.95,0.04-13.89,0-20.84c-0.01-0.96,0.31-1.14,1.19-1.13c6.91,0.03,13.82,0.03,20.73,0
		c0.84,0,1.13,0.17,1.12,1.08c-0.06,3.53-0.02,7.06-0.02,10.58c0,3.45-0.03,6.91,0.02,10.36C110.61,27.56,110.31,27.73,109.48,27.73
		z"/>
	<path class="st0" d="M105.94,16.17c0-1.98-0.03-3.96,0.01-5.95c0.02-0.73-0.13-1.02-0.94-1.01c-4,0.04-8,0.03-12,0.01
		c-0.68,0-0.96,0.12-0.96,0.89c0.04,4.04,0.04,8.08,0,12.11c-0.01,0.76,0.26,0.9,0.95,0.9c4-0.03,8-0.04,12,0.01
		c0.81,0.01,0.97-0.27,0.95-1.01C105.91,20.14,105.94,18.15,105.94,16.17z"/>
	<path class="st0" d="M32.23,84.09c0-0.83-0.23-1.05-1.05-1.05c-5.03,0.04-10.07,0.02-15.1,0.02c-4.96,0-9.92,0.02-14.88-0.02
		C0.31,83.03,0,83.22,0,84.17c0.04,9.99,0.03,19.99,0,29.98c0,0.86,0.23,1.12,1.1,1.12c9.99-0.03,19.99-0.03,29.98,0
		c0.83,0,1.15-0.17,1.14-1.09C32.2,104.15,32.2,94.12,32.23,84.09z M26.77,110.63c-3.56-0.01-7.13,0-10.69,0
		c-3.49,0-6.98-0.01-10.47,0.01c-0.69,0-0.96-0.15-0.96-0.91c0.03-7.09,0.02-14.18,0.01-21.28c0-0.65,0.15-0.9,0.85-0.9
		c7.13,0.02,14.26,0.02,21.39,0c0.56,0,0.77,0.16,0.77,0.75c-0.02,7.2-0.02,14.41,0,21.61C27.67,110.64,27.29,110.64,26.77,110.63z"
		/>
	<path class="st0" d="M22.14,92.15c-2.02,0.04-4.04,0.01-6.06,0.01c-2.02,0-4.04,0.03-6.06-0.02c-0.74-0.02-0.92,0.23-0.91,0.94
		c0.03,4.04,0.02,8.07,0,12.11c0,0.57,0.08,0.86,0.76,0.85c4.11-0.03,8.22-0.03,12.33,0c0.64,0,0.8-0.21,0.8-0.82
		c-0.02-4.07-0.03-8.15,0-12.22C23.03,92.31,22.8,92.14,22.14,92.15z"/>
	<path class="st0" d="M11.36,68.93c-1.97,0-1.97,0-1.97-1.93c0-2.19,0-2.19,2.15-2.19c1.97,0,1.97,0,1.97,1.93
		C13.51,68.93,13.51,68.93,11.36,68.93z"/>
	<path class="st0" d="M8.89,48.5c0,1.96,0,1.96-1.93,1.96c-2.19,0-2.19,0-2.19-2.15c0-1.96,0-1.96,1.93-1.96
		C8.89,46.35,8.89,46.35,8.89,48.5z"/>
	<path class="st0" d="M54.98,6.99c0,2.01,0,2.01-2,2.01c-2.12,0-2.12,0-2.12-2.11c0-2.01,0-2.01,2-2.01
		C54.98,4.87,54.98,4.87,54.98,6.99z"/>
	<path class="st0" d="M59.6,6.97c0,2.03,0,2.03-1.99,2.03c-2.14,0-2.14,0-2.14-2.09c0-2.03,0-2.03,1.99-2.03
		C59.6,4.87,59.6,4.87,59.6,6.97z"/>
	<path class="st0" d="M64.21,7c0,1.99,0,1.99-2.02,1.99c-2.1,0-2.1,0-2.1-2.13c0-1.99,0-1.99,2.02-1.99
		C64.21,4.87,64.21,4.87,64.21,7z"/>
	<path class="st0" d="M16.17,46.35c1.96,0,1.96,0,1.96,1.94c0,2.18,0,2.18-2.17,2.18c-1.96,0-1.96,0-1.96-1.94
		C14.01,46.35,14.01,46.35,16.17,46.35z"/>
	<path class="st0" d="M48.27,13.61c-2.03,0-2.03,0-2.03-1.98c0-2.14,0-2.14,2.09-2.14c2.03,0,2.03,0,2.03,1.99
		C50.36,13.61,50.36,13.61,48.27,13.61z"/>
	<path class="st0" d="M50.86,11.51c0-2.03,0-2.03,1.99-2.03c2.14,0,2.14,0,2.14,2.1c0,2.03,0,2.03-1.99,2.03
		C50.86,13.61,50.86,13.61,50.86,11.51z"/>
	<path class="st0" d="M60.09,11.53c0-2.05,0-2.05,2.08-2.05c2.04,0,2.04,0,2.04,2.08c0,2.05,0,2.05-2.08,2.05
		C60.09,13.61,60.09,13.61,60.09,11.53z"/>
	<path class="st0" d="M20.77,46.35c1.98,0,1.98,0,1.98,2.02c0,2.09,0,2.09-2.14,2.09c-1.98,0-1.98,0-1.98-2.02
		C18.63,46.35,18.63,46.35,20.77,46.35z"/>
	<path class="st0" d="M22.74,62.2c0,2.11,0,2.11-2.11,2.11c-2,0-2,0-2-2.01c0-2.11,0-2.11,2.11-2.11
		C22.74,60.19,22.74,60.19,22.74,62.2z"/>
	<path class="st0" d="M66.74,64.31c-2.03,0-2.03,0-2.03-1.98c0-2.14,0-2.14,2.19-2.14c1.92,0,1.92,0,1.92,1.87c0,0.07,0,0.15,0,0.22
		C68.83,64.31,68.83,64.31,66.74,64.31z"/>
	<path class="st0" d="M54.98,16.2c0,2.03,0,2.03-1.98,2.03c-2.14,0-2.14,0-2.14-2.09c0-2.03,0-2.03,1.98-2.03
		C54.98,14.11,54.98,14.11,54.98,16.2z"/>
	<path class="st0" d="M57.64,14.11c1.96,0,1.96,0,1.96,1.94c0,2.18,0,2.18-2.16,2.18c-1.96,0-1.96,0-1.96-1.94
		C55.47,14.11,55.47,14.11,57.64,14.11z"/>
	<path class="st0" d="M64.21,16.07c0,2.16,0,2.16-2.18,2.16c-1.94,0-1.94,0-1.94-1.97c0-2.16,0-2.16,2.18-2.16
		C64.21,14.11,64.21,14.11,64.21,16.07z"/>
	<path class="st0" d="M68.83,16.07c0,2.16,0,2.16-2.18,2.16c-1.93,0-1.93,0-1.93-1.97c0-2.16,0-2.16,2.18-2.16
		C68.83,14.11,68.83,14.11,68.83,16.07z"/>
	<path class="st0" d="M94.28,64.31c-1.95,0-1.95,0-1.95-1.94c0-2.18,0-2.18,2.17-2.18c1.95,0,1.95,0,1.95,1.94
		C96.45,64.31,96.45,64.31,94.28,64.31z"/>
	<path class="st0" d="M50.36,20.81c0,2.04,0,2.04-2.09,2.04c-2.03,0-2.03,0-2.03-2.08c0-2.04,0-2.04,2.08-2.04
		C50.36,18.73,50.36,18.73,50.36,20.81z"/>
	<path class="st0" d="M59.6,20.79c0,2.05,0,2.05-2.07,2.05c-2.06,0-2.06,0-2.06-2.07c0-2.05,0-2.05,2.07-2.05
		C59.6,18.73,59.6,18.73,59.6,20.79z"/>
	<path class="st0" d="M50.86,48.48c0-2.13,0-2.13,2.09-2.13c2.03,0,2.03,0,2.03,1.98c0,2.13,0,2.13-2.09,2.13
		C50.86,50.46,50.86,50.46,50.86,48.48z"/>
	<path class="st0" d="M110.8,112.91c0-2.01,0-2.01,2-2.01c2.11,0,2.11,0,2.11,2.15c0,1.96,0,1.96-1.95,1.96c-0.04,0-0.07,0-0.11,0
		C110.8,115.01,110.8,115.01,110.8,112.91z"/>
	<path class="st0" d="M59.6,103.73c0,2.05,0,2.05-2.07,2.05c-2.05,0-2.05,0-2.05-2.07c0-2.05,0-2.05,2.07-2.05
		C59.6,101.66,59.6,101.66,59.6,103.73z"/>
	<path class="st0" d="M55.47,48.38c0-2.03,0-2.03,1.98-2.03c2.14,0,2.14,0,2.14,2.19c0,1.92,0,1.92-1.87,1.92c-0.07,0-0.15,0-0.22,0
		C55.47,50.46,55.47,50.46,55.47,48.38z"/>
	<path class="st0" d="M62.08,50.46c-1.99,0-1.99,0-1.99-2.01c0-2.1,0-2.1,2.13-2.1c1.99,0,1.99,0,1.99,2.01
		C64.21,50.46,64.21,50.46,62.08,50.46z"/>
	<path class="st0" d="M66.71,50.46c-2,0-2,0-2-2c0-2.12,0-2.12,2.12-2.12c2,0,2,0,2,2C68.83,50.46,68.83,50.46,66.71,50.46z"/>
	<path class="st0" d="M48.37,60.19c1.99,0,1.99,0,1.99,2.01c0,2.11,0,2.11-2.12,2.11c-1.99,0-1.99,0-1.99-2.01
		C46.25,60.19,46.25,60.19,48.37,60.19z"/>
	<path class="st0" d="M48.25,105.78c-2,0-2,0-2-2.01c0-2.12,0-2.12,2.11-2.12c2,0,2,0,2,2.01
		C50.36,105.78,50.36,105.78,48.25,105.78z"/>
	<path class="st0" d="M112.77,101.17c-1.97,0-1.97,0-1.97-1.92c0-2.2,0-2.2,2.25-2.2c1.86,0,1.86,0,1.86,1.81c0,0.07,0,0.15,0,0.22
		C114.91,101.17,114.91,101.17,112.77,101.17z"/>
	<path class="st0" d="M94.3,101.17c-1.97,0-1.97,0-1.97-1.93c0-2.19,0-2.19,2.15-2.19c1.97,0,1.97,0,1.97,1.93
		C96.45,101.17,96.45,101.17,94.3,101.17z"/>
	<path class="st0" d="M96.45,57.7c0,2,0,2-2.01,2c-2.11,0-2.11,0-2.11-2.12c0-2,0-2,2.01-2C96.45,55.57,96.45,55.57,96.45,57.7z"/>
	<path class="st0" d="M94.43,46.35c2.02,0,2.02,0,2.02,2c0,2.12,0,2.12-2.1,2.12c-2.01,0-2.01,0-2.02-2
		C92.33,46.35,92.33,46.35,94.43,46.35z"/>
	<path class="st0" d="M105.68,48.43c0,2.03,0,2.03-1.98,2.03c-2.14,0-2.14,0-2.14-2.19c0-1.92,0-1.92,1.87-1.92
		c0.07,0,0.15,0,0.22,0C105.68,46.35,105.68,46.35,105.68,48.43z"/>
	<path class="st0" d="M57.55,97.04c2.05,0,2.05,0,2.05,2.07c0,2.05,0,2.05-2.08,2.05c-2.05,0-2.05,0-2.05-2.08
		C55.47,97.04,55.47,97.04,57.55,97.04z"/>
	<path class="st0" d="M6.92,55.08c-2.15,0-2.15,0-2.15-2.2c0-1.92,0-1.92,1.97-1.92c2.15,0,2.15,0,2.15,2.2
		C8.89,55.08,8.89,55.08,6.92,55.08z"/>
	<path class="st0" d="M52.92,101.17c-2.06,0-2.06,0-2.06-2.06c0-2.06,0-2.06,2.06-2.06c2.06,0,2.06,0,2.06,2.06
		C54.98,101.17,54.98,101.17,52.92,101.17z"/>
	<path class="st0" d="M48.26,101.17c-2.02,0-2.02,0-2.02-2c0-2.13,0-2.13,2.1-2.13c2.02,0,2.02,0,2.02,2
		C50.36,101.17,50.36,101.17,48.26,101.17z"/>
	<path class="st0" d="M9.39,52.98c0-2.02,0-2.02,1.99-2.02c2.14,0,2.14,0,2.14,2.1c0,2.02,0,2.02-1.99,2.02
		C9.39,55.08,9.39,55.08,9.39,52.98z"/>
	<path class="st0" d="M20.71,50.96c2.04,0,2.04,0,2.04,2.08c0,2.04,0,2.04-2.08,2.04c-2.04,0-2.04,0-2.04-2.08
		C18.63,50.96,18.63,50.96,20.71,50.96z"/>
	<path class="st0" d="M99,55.57c2.07,0,2.07,0,2.07,2.05c0,2.07,0,2.07-2.06,2.07c-2.07,0-2.07,0-2.07-2.05
		C96.94,55.57,96.94,55.57,99,55.57z"/>
	<path class="st0" d="M0.17,66.88c0-2.07,0-2.07,2.05-2.07c2.06,0,2.06,0,2.06,2.04c0,2.07,0,2.07-2.05,2.07
		C0.17,68.93,0.17,68.93,0.17,66.88z"/>
	<path class="st0" d="M101.07,94.53c0,2.02,0,2.02-1.99,2.02c-2.13,0-2.13,0-2.13-2.1c0-2.02,0-2.02,1.99-2.02
		C101.07,92.43,101.07,92.43,101.07,94.53z"/>
	<path class="st0" d="M94.43,92.43c2.01,0,2.01,0,2.01,2c0,2.11,0,2.11-2.11,2.11c-2.01,0-2.01,0-2.01-2
		C92.33,92.43,92.33,92.43,94.43,92.43z"/>
	<path class="st0" d="M57.54,92.43c2.06,0,2.06,0,2.06,2.07c0,2.05,0,2.05-2.07,2.05c-2.06,0-2.06,0-2.06-2.07
		C55.47,92.43,55.47,92.43,57.54,92.43z"/>
	<path class="st0" d="M66.69,4.37c-1.98,0-1.98,0-1.98-2.01c0-2.1,0-2.1,2.13-2.1c1.98,0,1.98,0,1.98,2.01
		C68.83,4.37,68.83,4.37,66.69,4.37z"/>
	<path class="st0" d="M108.25,55.57c2.05,0,2.05,0,2.05,2.08c0,2.05,0,2.05-2.07,2.05c-2.05,0-2.05,0-2.05-2.08
		C106.18,55.57,106.18,55.57,108.25,55.57z"/>
	<path class="st0" d="M46.25,53.01c0-2.05,0-2.05,2.07-2.05c2.05,0,2.05,0,2.05,2.07c0,2.05,0,2.05-2.07,2.05
		C46.25,55.08,46.25,55.08,46.25,53.01z"/>
	<path class="st0" d="M52.97,55.08c-2.11,0-2.11,0-2.11-2.13c0-2,0-2,2.01-2c2.11,0,2.11,0,2.11,2.13
		C54.98,55.08,54.98,55.08,52.97,55.08z"/>
	<path class="st0" d="M68.83,103.79c0,1.99,0,1.99-2.01,1.99c-2.1,0-2.1,0-2.1-2.13c0-1.99,0-1.99,2.01-1.99
		C68.83,101.66,68.83,101.66,68.83,103.79z"/>
	<path class="st0" d="M110.3,99.02c0,2.15,0,2.15-2.2,2.15c-1.92,0-1.92,0-1.92-1.87c0-2.26,0-2.26,2.31-2.26
		C110.3,97.04,110.3,97.04,110.3,99.02z"/>
	<path class="st0" d="M64.21,103.66c0,2.12,0,2.12-2.11,2.12c-2.01,0-2.01,0-2.01-2c0-2.12,0-2.12,2.11-2.12
		C64.21,101.66,64.21,101.66,64.21,103.66z"/>
	<path class="st0" d="M64.22,52.91c0,2.17,0,2.17-2.18,2.17c-1.95,0-1.95,0-1.95-1.95c0-2.17,0-2.17,2.18-2.17
		C64.22,50.96,64.22,50.96,64.22,52.91z"/>
	<path class="st0" d="M55.47,62.23c0-2.04,0-2.04,2.09-2.04c2.04,0,2.04,0,2.04,2.09c0,2.04,0,2.04-2.09,2.04
		C55.47,64.31,55.47,64.31,55.47,62.23z"/>
	<path class="st0" d="M105.68,66.86c0,2.06,0,2.06-2.06,2.06c-2.07,0-2.07,0-2.07-2.05c0-2.06,0-2.06,2.06-2.06
		C105.68,64.81,105.68,64.81,105.68,66.86z"/>
	<path class="st0" d="M13.51,57.66c0,2.04,0,2.04-2.08,2.04c-2.04,0-2.04,0-2.04-2.08c0-2.04,0-2.04,2.08-2.04
		C13.51,55.57,13.51,55.57,13.51,57.66z"/>
	<path class="st0" d="M20.65,59.7c-2.02,0-2.02,0-2.02-1.99c0-2.14,0-2.14,2.1-2.14c2.02,0,2.02,0,2.02,1.99
		C22.74,59.7,22.74,59.7,20.65,59.7z"/>
	<path class="st0" d="M92.33,66.82c0-2.01,0-2.01,2.01-2.01c2.11,0,2.11,0,2.11,2.11c0,2.01,0,2.01-2.01,2.01
		C92.33,68.93,92.33,68.93,92.33,66.82z"/>
	<path class="st0" d="M68.83,66.99c0,1.94,0,1.94-1.95,1.94c-2.17,0-2.17,0-2.17-2.18c0-1.94,0-1.94,1.95-1.94
		C68.83,64.81,68.83,64.81,68.83,66.99z"/>
	<path class="st0" d="M64.21,66.87c0,2.06,0,2.06-2.06,2.06c-2.06,0-2.06,0-2.06-2.06c0-2.06,0-2.06,2.06-2.06
		C64.21,64.81,64.21,64.81,64.21,66.87z"/>
	<path class="st0" d="M57.44,68.93c-1.97,0-1.97,0-1.97-1.93c0-2.18,0-2.18,2.16-2.18c1.97,0,1.97,0,1.97,1.93
		C59.6,68.93,59.6,68.93,57.44,68.93z"/>
	<path class="st0" d="M4.27,62.36c0,1.96,0,1.96-1.94,1.96c-2.17,0-2.17,0-2.17-2.17c0-1.96,0-1.96,1.94-1.96
		C4.27,60.19,4.27,60.19,4.27,62.36z"/>
	<path class="st0" d="M8.89,62.25c0,2.06,0,2.06-2.06,2.06c-2.06,0-2.06,0-2.06-2.06c0-2.06,0-2.06,2.06-2.06
		C8.89,60.19,8.89,60.19,8.89,62.25z"/>
	<path class="st0" d="M50.86,66.83c0-2.01,0-2.01,2-2.01c2.12,0,2.12,0,2.12,2.1c0,2.01,0,2.01-2,2.01
		C50.86,68.93,50.86,68.93,50.86,66.83z"/>
	<path class="st0" d="M20.63,68.93c-2.01,0-2.01,0-2.01-2c0-2.11,0-2.11,2.11-2.11c2.01,0,2.01,0,2.01,2
		C22.74,68.93,22.74,68.93,20.63,68.93z"/>
	<path class="st0" d="M18.13,66.89c0,2.04,0,2.04-2.08,2.04c-2.04,0-2.04,0-2.04-2.08c0-2.04,0-2.04,2.08-2.04
		C18.13,64.81,18.13,64.81,18.13,66.89z"/>
	<path class="st0" d="M11.49,60.19c2.02,0,2.02,0,2.02,1.99c0,2.13,0,2.13-2.1,2.13c-2.02,0-2.02,0-2.02-1.99
		C9.39,60.19,9.39,60.19,11.49,60.19z"/>
	<path class="st0" d="M92.33,103.82c0-2.16,0-2.16,2.18-2.16c1.94,0,1.94,0,1.94,1.96c0,2.16,0,2.16-2.18,2.16
		C92.33,105.78,92.33,105.78,92.33,103.82z"/>
	<path class="st0" d="M105.68,103.62c0,2.16,0,2.16-2.18,2.16c-1.94,0-1.94,0-1.94-1.97c0-2.16,0-2.16,2.18-2.16
		C105.68,101.66,105.68,101.66,105.68,103.62z"/>
	<path class="st0" d="M112.81,105.78c-2.01,0-2.01,0-2.01-2c0-2.12,0-2.12,2.1-2.12c2.01,0,2.01,0,2.01,2
		C114.91,105.78,114.91,105.78,112.81,105.78z"/>
	<path class="st0" d="M52.84,110.4c-1.98,0-1.98,0-1.98-2.02c0-2.1,0-2.1,2.14-2.1c1.98,0,1.98,0,1.98,2.02
		C54.98,110.4,54.98,110.4,52.84,110.4z"/>
	<path class="st0" d="M66.69,110.4c-1.98,0-1.98,0-1.98-2.03c0-2.09,0-2.09,2.13-2.09c1.98,0,1.98,0,1.98,2.03
		C68.83,110.4,68.83,110.4,66.69,110.4z"/>
	<path class="st0" d="M96.45,108.4c0,2,0,2-2.02,2c-2.1,0-2.1,0-2.1-2.12c0-2,0-2,2.02-2C96.45,106.28,96.45,106.28,96.45,108.4z"/>
	<path class="st0" d="M101.07,108.37c0,2.03,0,2.03-1.99,2.03c-2.14,0-2.14,0-2.14-2.09c0-2.03,0-2.03,1.99-2.03
		C101.07,106.28,101.07,106.28,101.07,108.37z"/>
	<path class="st0" d="M108.16,110.4c-1.98,0-1.98,0-1.98-2.04c0-2.08,0-2.08,2.03-2.08c2.09,0,2.09,0,2.09,2.04
		C110.3,110.4,110.3,110.4,108.16,110.4z"/>
	<path class="st0" d="M48.41,110.9c1.95,0,1.95,0,1.95,1.93c0,2.18,0,2.18-2.16,2.18c-1.95,0-1.95,0-1.95-1.93
		C46.25,110.9,46.25,110.9,48.41,110.9z"/>
	<path class="st0" d="M66.8,110.9c2.03,0,2.03,0,2.03,1.98c0,2.13,0,2.13-2.09,2.13c-2.03,0-2.03,0-2.03-1.98
		C64.71,110.9,64.71,110.9,66.8,110.9z"/>
	<path class="st0" d="M103.68,110.9c2,0,2,0,2,2.01c0,2.1,0,2.1-2.12,2.1c-2,0-2,0-2-2.01C101.56,110.9,101.56,110.9,103.68,110.9z"
		/>
	<path class="st0" d="M108.24,110.9c2.06,0,2.06,0,2.06,2.06c0,2.04,0,2.04-2.06,2.04c-2.06,0-2.06,0-2.06-2.06
		C106.18,110.9,106.18,110.9,108.24,110.9z"/>
	<path class="st0" d="M48.24,31.99c-1.99,0-1.99,0-1.99-2.03c0-1.99,0-1.99,2.02-1.99c2.09,0,2.09,0,2.09,2.13
		C50.36,31.99,50.36,31.99,48.24,31.99z"/>
	<path class="st0" d="M57.62,27.97c1.98,0,1.98,0,1.98,2.03c0,1.99,0,1.99-2.03,1.99c-2.09,0-2.09,0-2.09-2.04
		C55.47,27.97,55.47,27.97,57.62,27.97z"/>
	<path class="st0" d="M66.78,31.99c-2.06,0-2.06,0-2.06-2.05c0-1.96,0-1.96,1.92-1.96c2.19,0,2.19,0,2.19,2.15
		C68.82,31.99,68.82,31.99,66.78,31.99z"/>
	<path class="st0" d="M57.49,36.6c-2.02,0-2.02,0-2.02-2c0-2.02,0-2.02,1.99-2.02c2.13,0,2.13,0,2.13,2.1
		C59.6,36.6,59.6,36.6,57.49,36.6z"/>
	<path class="st0" d="M6.79,41.22c-2.02,0-2.02,0-2.02-1.99c0-2.03,0-2.03,2-2.03c2.12,0,2.12,0,2.12,2.11
		C8.89,41.22,8.89,41.22,6.79,41.22z"/>
	<path class="st0" d="M11.43,37.2c2.08,0,2.08,0,2.08,2.05c0,1.97,0,1.97-1.93,1.97c-2.19,0-2.19,0-2.19-2.15
		C9.39,37.2,9.39,37.2,11.43,37.2z"/>
	<path class="st0" d="M15.98,41.22c-1.97,0-1.97,0-1.97-1.93c0-2.09,0-2.09,2.04-2.09c2.08,0,2.08,0,2.08,2.05
		C18.13,41.22,18.13,41.22,15.98,41.22z"/>
	<path class="st0" d="M20.62,41.22c-2,0-2,0-2-2c0-2.01,0-2.01,2-2.01c2.12,0,2.12,0,2.12,2.12C22.74,41.22,22.74,41.22,20.62,41.22
		z"/>
	<path class="st0" d="M48.25,41.22c-2,0-2,0-2-2.01c0-2.01,0-2.01,2.01-2.01c2.1,0,2.1,0,2.1,2.13
		C50.36,41.22,50.36,41.22,48.25,41.22z"/>
	<path class="st0" d="M62.24,37.2c1.97,0,1.97,0,1.97,1.94c0,2.08,0,2.08-2.05,2.08c-2.07,0-2.07,0-2.07-2.05
		C60.09,37.2,60.09,37.2,62.24,37.2z"/>
	<path class="st0" d="M66.75,41.22c-2.03,0-2.03,0-2.03-2.08c0-1.94,0-1.94,1.96-1.94c2.16,0,2.16,0,2.16,2.19
		C68.82,41.22,68.82,41.22,66.75,41.22z"/>
	<path class="st0" d="M98.95,41.22c-2.01,0-2.01,0-2.01-2.01c0-2.01,0-2.01,2.01-2.01c2.11,0,2.11,0,2.11,2.12
		C101.07,41.22,101.07,41.22,98.95,41.22z"/>
	<path class="st0" d="M108.15,41.22c-1.97,0-1.97,0-1.97-1.93c0-2.09,0-2.09,2.14-2.09c1.98,0,1.98,0,1.98,1.93
		C110.3,41.22,110.3,41.22,108.15,41.22z"/>
	<path class="st0" d="M11.51,41.81c2,0,2,0,2,2.03c0,2,0,2-2.01,2c-2.11,0-2.11,0-2.11-2.12C9.39,41.81,9.39,41.81,11.51,41.81z"/>
	<path class="st0" d="M20.6,45.84c-1.97,0-1.97,0-1.97-1.92c0-2.11,0-2.11,2.13-2.11c1.98,0,1.98,0,1.98,1.94
		C22.74,45.84,22.74,45.84,20.6,45.84z"/>
	<path class="st0" d="M52.91,45.84c-2.05,0-2.05,0-2.05-2.07c0-1.96,0-1.96,1.97-1.96c2.16,0,2.16,0,2.16,2.2
		C54.98,45.84,54.98,45.84,52.91,45.84z"/>
	<path class="st0" d="M66.74,45.83c-2.02,0-2.02,0-2.02-1.98c0-2.05,0-2.05,2.07-2.05c2.04,0,2.04,0,2.04,1.99
		C68.82,45.83,68.82,45.83,66.74,45.83z"/>
	<path class="st0" d="M94.45,41.81c1.99,0,1.99,0,1.99,2.03c0,2,0,2-2.01,2c-2.11,0-2.11,0-2.11-2.12
		C92.33,41.81,92.33,41.81,94.45,41.81z"/>
	<path class="st0" d="M31.89,48.45c0,2.01,0,2.01-2,2.01c-2.02,0-2.02,0-2.02-1.98c0-2.13,0-2.13,2.1-2.13
		C31.89,46.35,31.89,46.35,31.89,48.45z"/>
	<path class="st0" d="M41.12,48.45c0,2.01,0,2.01-1.99,2.01c-2.03,0-2.03,0-2.03-1.98c0-2.13,0-2.13,2.11-2.13
		C41.12,46.35,41.12,46.35,41.12,48.45z"/>
	<path class="st0" d="M41.71,48.29c0-1.94,0-1.94,1.98-1.94c2.05,0,2.05,0,2.05,2.07c0,2.04,0,2.04-2.07,2.04
		C41.71,50.46,41.71,50.46,41.71,48.29z"/>
	<path class="st0" d="M82.59,48.47c0,1.99,0,1.99-2.01,1.99c-2,0-2,0-2-2c0-2.11,0-2.11,2.12-2.11
		C82.59,46.35,82.59,46.35,82.59,48.47z"/>
	<path class="st0" d="M87.2,48.39c0,2.07,0,2.07-2.04,2.07c-1.98,0-1.98,0-1.98-2.03c0-2.08,0-2.08,2.05-2.08
		C87.2,46.35,87.2,46.35,87.2,48.39z"/>
	<path class="st0" d="M27.29,53.04c0,2.05,0,2.05-2.1,2.05c-1.94,0-1.94,0-1.94-1.96c0-2.16,0-2.16,2.19-2.16
		C27.29,50.96,27.29,50.96,27.29,53.04z"/>
	<path class="st0" d="M41.71,52.96c0-2,0-2,2.03-2c2,0,2,0,2,2.02c0,2.1,0,2.1-2.13,2.1C41.71,55.08,41.71,55.08,41.71,52.96z"/>
	<path class="st0" d="M73.96,53c0-2.04,0-2.04,2.09-2.04c1.93,0,1.93,0,1.93,1.98c0,2.14,0,2.14-2.1,2.14
		C73.96,55.08,73.96,55.08,73.96,53z"/>
	<path class="st0" d="M23.25,57.61c0-2.03,0-2.03,1.98-2.03c2.05,0,2.05,0,2.05,2.09c0,2.03,0,2.03-2,2.03
		C23.25,59.7,23.25,59.7,23.25,57.61z"/>
	<path class="st0" d="M29.79,59.7c-1.91,0-1.91,0-1.91-1.88c0-2.24,0-2.24,2.2-2.24c1.82,0,1.82,0,1.82,1.77c0,0.07,0,0.15,0,0.22
		C31.89,59.7,31.89,59.7,29.79,59.7z"/>
	<path class="st0" d="M36.5,57.66c0,2.03,0,2.03-1.98,2.03c-2.03,0-2.03,0-2.03-1.98c0-2.14,0-2.14,2.09-2.14
		C36.5,55.58,36.5,55.58,36.5,57.66z"/>
	<path class="st0" d="M45.73,57.66c0,2.03,0,2.03-2.09,2.03c-1.94,0-1.94,0-1.94-1.98c0-2.14,0-2.14,2.1-2.14
		C45.73,55.58,45.73,55.58,45.73,57.66z"/>
	<path class="st0" d="M73.37,57.7c0,2,0,2-2.03,2c-2,0-2,0-2-2.01c0-2.11,0-2.11,2.12-2.11C73.37,55.58,73.37,55.58,73.37,57.7z"/>
	<path class="st0" d="M77.97,57.74c0,1.96,0,1.96-1.95,1.96c-2.07,0-2.07,0-2.07-2.05c0-2.07,0-2.07,2.05-2.07
		C77.97,55.58,77.97,55.58,77.97,57.74z"/>
	<path class="st0" d="M91.82,57.67c0,2.03,0,2.03-1.99,2.03c-2.05,0-2.05,0-2.05-2.09c0-2.03,0-2.03,2.01-2.03
		C91.82,55.58,91.82,55.58,91.82,57.67z"/>
	<path class="st0" d="M114.84,57.74c0,1.96,0,1.96-1.97,1.96c-2.07,0-2.07,0-2.07-2.06c0-2.07,0-2.07,2.06-2.07
		C114.84,55.57,114.84,55.57,114.84,57.74z"/>
	<path class="st0" d="M23.25,62.15c0-1.96,0-1.96,1.94-1.96c2.1,0,2.1,0,2.1,2.15c0,1.97,0,1.97-1.96,1.97
		C23.25,64.31,23.25,64.31,23.25,62.15z"/>
	<path class="st0" d="M32.49,62.17c0-1.98,0-1.98,2.03-1.98c1.99,0,1.99,0,1.99,2.02c0,2.1,0,2.1-2.14,2.1
		C32.49,64.31,32.49,64.31,32.49,62.17z"/>
	<path class="st0" d="M69.34,62.23c0-2.04,0-2.04,2.08-2.04c1.95,0,1.95,0,1.95,1.97c0,2.16,0,2.16-2.21,2.16
		C69.34,64.31,69.34,64.31,69.34,62.23z"/>
	<path class="st0" d="M91.82,62.17c0,2.15,0,2.15-2.09,2.15c-1.94,0-1.94,0-1.94-1.98c0-2.14,0-2.14,2.11-2.14
		C91.82,60.19,91.82,60.19,91.82,62.17z"/>
	<path class="st0" d="M77.97,20.85c0,1.99,0,1.99-2.03,1.99c-1.99,0-1.99,0-1.99-2.03c0-2.09,0-2.09,2.13-2.09
		C77.97,18.73,77.97,18.73,77.97,20.85z"/>
	<path class="st0" d="M27.87,66.77c0-1.95,0-1.95,1.93-1.95c2.08,0,2.08,0,2.08,2.03c0,2.08,0,2.08-2.05,2.08
		C27.87,68.92,27.87,68.92,27.87,66.77z"/>
	<path class="st0" d="M32.49,66.81c0-2,0-2,2-2c2.02,0,2.02,0,2.02,1.99c0,2.12,0,2.12-2.11,2.12
		C32.49,68.92,32.49,68.92,32.49,66.81z"/>
	<path class="st0" d="M45.73,66.92c0,2,0,2-2.01,2c-2.02,0-2.02,0-2.02-2.01c0-2.1,0-2.1,2.13-2.1
		C45.73,64.81,45.73,64.81,45.73,66.92z"/>
	<path class="st0" d="M82.59,66.81c0,2.11,0,2.11-2.12,2.11c-1.89,0-1.89,0-1.89-1.9c0-2.21,0-2.21,2.23-2.21
		C82.59,64.81,82.59,64.81,82.59,66.81z"/>
	<path class="st0" d="M87.2,66.9c0,2.02,0,2.02-1.99,2.02c-2.03,0-2.03,0-2.03-1.99c0-2.12,0-2.12,2.11-2.12
		C87.2,64.81,87.2,64.81,87.2,66.9z"/>
	<path class="st0" d="M20.77,69.44c1.97,0,1.97,0,1.97,1.93c0,2.1,0,2.1-2.04,2.1c-2.07,0-2.07,0-2.07-2.06
		C18.63,69.44,18.63,69.44,20.77,69.44z"/>
	<path class="st0" d="M52.98,73.47c-2.13,0-2.13,0-2.13-2.13c0-1.9,0-1.9,1.89-1.9c2.23,0,2.23,0,2.23,2.22
		C54.98,73.47,54.98,73.47,52.98,73.47z"/>
	<path class="st0" d="M66.85,69.44c1.97,0,1.97,0,1.97,1.93c0,2.1,0,2.1-2.04,2.1c-2.07,0-2.07,0-2.07-2.06
		C64.71,69.44,64.71,69.44,66.85,69.44z"/>
	<path class="st0" d="M108.24,69.44c2.06,0,2.06,0,2.06,2.06c0,1.97,0,1.97-1.96,1.97c-2.16,0-2.16,0-2.16-2.19
		C106.18,69.44,106.18,69.44,108.24,69.44z"/>
	<path class="st0" d="M11.46,74.06c2.05,0,2.05,0,2.05,2.07c0,1.95,0,1.95-1.96,1.95c-2.16,0-2.16,0-2.16-2.19
		C9.39,74.06,9.39,74.06,11.46,74.06z"/>
	<path class="st0" d="M16.09,74.06c2.04,0,2.04,0,2.04,2.08c0,1.93,0,1.93-1.98,1.93c-2.15,0-2.15,0-2.15-2.09
		C14.01,74.06,14.01,74.06,16.09,74.06z"/>
	<path class="st0" d="M20.75,74.06c1.99,0,1.99,0,1.99,2.02c0,2,0,2-2.03,2c-2.09,0-2.09,0-2.09-2.14
		C18.63,74.06,18.63,74.06,20.75,74.06z"/>
	<path class="st0" d="M50.36,76.02c0,2.06,0,2.06-2.06,2.06c-2.05,0-2.05,0-2.05-2.08c0-1.94,0-1.94,1.96-1.94c0.07,0,0.15,0,0.22,0
		C50.36,74.06,50.36,74.06,50.36,76.02z"/>
	<path class="st0" d="M57.49,78.08c-2.02,0-2.02,0-2.02-2c0-2.02,0-2.02,1.99-2.02c2.13,0,2.13,0,2.13,2.1
		C59.6,78.08,59.6,78.08,57.49,78.08z"/>
	<path class="st0" d="M68.82,76c0,2.08,0,2.08-2.05,2.08c-2.06,0-2.06,0-2.06-2.06c0-1.96,0-1.96,1.93-1.96c0.07,0,0.15,0,0.22,0
		C68.82,74.06,68.82,74.06,68.82,76z"/>
	<path class="st0" d="M94.41,78.08c-2.08,0-2.08,0-2.08-2.05c0-1.97,0-1.97,1.94-1.97c2.18,0,2.18,0,2.18,2.16
		C96.44,78.08,96.44,78.08,94.41,78.08z"/>
	<path class="st0" d="M99.08,74.06c1.98,0,1.98,0,1.98,2.03c0,1.99,0,1.99-2.03,1.99c-2.1,0-2.1,0-2.1-2.15
		C96.94,74.06,96.94,74.06,99.08,74.06z"/>
	<path class="st0" d="M48.36,78.67c2,0,2,0,2,2.01s0,2.01-1.99,2.01c-2.12,0-2.12,0-2.12-2.12C46.25,78.67,46.25,78.67,48.36,78.67z
		"/>
	<path class="st0" d="M52.92,78.67c2.05,0,2.05,0,2.05,2.07c0,1.95,0,1.95-1.95,1.95c-2.17,0-2.17,0-2.17-2.17
		C50.86,78.67,50.86,78.67,52.92,78.67z"/>
	<path class="st0" d="M96.44,80.64c0,2.05,0,2.05-2.06,2.05c-2.05,0-2.05,0-2.05-2.07c0-1.94,0-1.94,1.97-1.94c0.07,0,0.15,0,0.22,0
		C96.44,78.67,96.44,78.67,96.44,80.64z"/>
	<path class="st0" d="M48.35,87.3c-2.1,0-2.1,0-2.1-2.13c0-1.89,0-1.89,1.91-1.89c2.19,0,2.19,0,2.19,2.14
		C50.36,87.3,50.36,87.3,48.35,87.3z"/>
	<path class="st0" d="M52.84,87.3c-1.98,0-1.98,0-1.98-2.03c0-1.99,0-1.99,2.04-1.99c2.08,0,2.08,0,2.08,2.04
		C54.98,87.3,54.98,87.3,52.84,87.3z"/>
	<path class="st0" d="M57.63,87.3c-2.15,0-2.15,0-2.15-2.19c0-1.83,0-1.83,1.86-1.83c2.26,0,2.26,0,2.26,2.31
		C59.6,87.3,59.6,87.3,57.63,87.3z"/>
	<path class="st0" d="M62.1,87.3c-2.01,0-2.01,0-2.01-2c0-2.02,0-2.02,2-2.02c2.12,0,2.12,0,2.12,2.12
		C64.21,87.3,64.21,87.3,62.1,87.3z"/>
	<path class="st0" d="M66.76,87.3c-2.04,0-2.04,0-2.04-2.06c0-1.96,0-1.96,1.94-1.96c2.17,0,2.17,0,2.17,2.18
		C68.82,87.3,68.82,87.3,66.76,87.3z"/>
	<path class="st0" d="M94.37,87.3c-2.04,0-2.04,0-2.04-2.08c0-1.94,0-1.94,1.97-1.94c2.14,0,2.14,0,2.14,2.09
		C96.44,87.3,96.44,87.3,94.37,87.3z"/>
	<path class="st0" d="M108.25,87.3c-2.07,0-2.07,0-2.07-2.05c0-1.97,0-1.97,1.93-1.97c2.19,0,2.19,0,2.19,2.17
		C110.3,87.3,110.3,87.3,108.25,87.3z"/>
	<path class="st0" d="M50.36,89.97c0,1.95,0,1.95-1.94,1.95c-2.17,0-2.17,0-2.17-2.18c0-1.86,0-1.86,1.85-1.86c0.07,0,0.15,0,0.22,0
		C50.36,87.89,50.36,87.89,50.36,89.97z"/>
	<path class="st0" d="M54.98,89.96c0,1.96,0,1.96-1.94,1.96c-2.18,0-2.18,0-2.18-2.17c0-1.87,0-1.87,1.84-1.87c0.07,0,0.15,0,0.22,0
		C54.98,87.89,54.98,87.89,54.98,89.96z"/>
	<path class="st0" d="M57.44,91.92c-1.97,0-1.97,0-1.97-1.93c0-2.1,0-2.1,2.15-2.1c1.97,0,1.97,0,1.97,1.95
		C59.6,91.92,59.6,91.92,57.44,91.92z"/>
	<path class="st0" d="M62.25,87.89c1.96,0,1.96,0,1.96,1.97c0,2.07,0,2.07-2.06,2.07c-2.06,0-2.06,0-2.06-2.06
		C60.09,87.89,60.09,87.89,62.25,87.89z"/>
	<path class="st0" d="M94.46,91.92c-2.14,0-2.14,0-2.14-2.1c0-1.93,0-1.93,1.88-1.93c2.24,0,2.24,0,2.24,2.23
		C96.45,91.92,96.45,91.92,94.46,91.92z"/>
	<path class="st0" d="M98.94,91.92c-2,0-2,0-2-2.02c0-2.02,0-2.02,2.02-2.02c2.1,0,2.1,0,2.1,2.15
		C101.07,91.92,101.07,91.92,98.94,91.92z"/>
	<path class="st0" d="M39.12,96.55c-2.02,0-2.02,0-2.02-1.99c0-2.13,0-2.13,2.12-2.13c1.9,0,1.9,0,1.9,1.89c0,0.07,0,0.15,0,0.22
		C41.12,96.55,41.12,96.55,39.12,96.55z"/>
	<path class="st0" d="M73.37,94.55c0,2,0,2-2.02,2c-2.01,0-2.01,0-2.01-2c0-2.12,0-2.12,2.12-2.12
		C73.37,92.43,73.37,92.43,73.37,94.55z"/>
	<path class="st0" d="M73.96,94.46c0-2.03,0-2.03,1.98-2.03c2.04,0,2.04,0,2.04,1.99c0,2.13,0,2.13-2.1,2.13
		C73.96,96.55,73.96,96.55,73.96,94.46z"/>
	<path class="st0" d="M78.57,94.47c0-2.04,0-2.04,2.09-2.04c1.93,0,1.93,0,1.93,1.87c0,2.24,0,2.24-2.2,2.24
		C78.57,96.55,78.57,96.55,78.57,94.47z"/>
	<path class="st0" d="M87.2,94.51c0,2.03,0,2.03-2.08,2.03c-1.94,0-1.94,0-1.94-1.96c0-2.15,0-2.15,2.2-2.15
		C87.2,92.43,87.2,92.43,87.2,94.51z"/>
	<path class="st0" d="M89.85,96.55c-2.07,0-2.07,0-2.07-2.07c0-2.05,0-2.05,2.1-2.05c1.94,0,1.94,0,1.94,1.97c0,0.07,0,0.15,0,0.22
		C91.82,96.55,91.82,96.55,89.85,96.55z"/>
	<path class="st0" d="M41.12,99.12c0,2.04,0,2.04-2.08,2.04c-1.94,0-1.94,0-1.94-1.97c0-2.16,0-2.16,2.19-2.16
		C41.12,97.04,41.12,97.04,41.12,99.12z"/>
	<path class="st0" d="M75.93,97.04c2.05,0,2.05,0,2.05,2.08c0,2.04,0,2.04-2.09,2.04c-1.93,0-1.93,0-1.93-1.97c0-0.07,0-0.15,0-0.22
		C73.96,97.04,73.96,97.04,75.93,97.04z"/>
	<path class="st0" d="M82.59,99.15c0,2.02,0,2.02-1.99,2.02c-2.02,0-2.02,0-2.02-1.99c0-2.13,0-2.13,2.1-2.13
		C82.59,97.04,82.59,97.04,82.59,99.15z"/>
	<path class="st0" d="M87.2,99.19c0,1.98,0,1.98-2.03,1.98c-1.99,0-1.99,0-1.99-2.03c0-2.09,0-2.09,2.04-2.09
		C87.2,97.04,87.2,97.04,87.2,99.19z"/>
	<path class="st0" d="M41.12,53.08c0,1.99,0,1.99-2.01,1.99c-2.01,0-2.01,0-2.01-2.01c0-2.11,0-2.11,2.13-2.11
		C41.12,50.96,41.12,50.96,41.12,53.08z"/>
	<path class="st0" d="M41.12,103.81c0,1.98,0,1.98-1.93,1.98c-2.09,0-2.09,0-2.09-2.04c0-2.08,0-2.08,2.05-2.08
		C41.12,101.66,41.12,101.66,41.12,103.81z"/>
	<path class="st0" d="M45.73,103.63c0,2.15,0,2.15-2.19,2.15c-1.84,0-1.84,0-1.84-1.86c0-2.26,0-2.26,2.21-2.26
		C45.73,101.66,45.73,101.66,45.73,103.63z"/>
	<path class="st0" d="M87.2,103.72c0,2.07,0,2.07-2.06,2.07c-1.96,0-1.96,0-1.96-1.95c0-2.17,0-2.17,2.18-2.17
		C87.2,101.66,87.2,101.66,87.2,103.72z"/>
	<path class="st0" d="M41.12,6.99c0,2,0,2-2.01,2c-2.01,0-2.01,0-2.01-2c0-2.12,0-2.12,2.12-2.12C41.12,4.88,41.12,4.88,41.12,6.99z
		"/>
	<path class="st0" d="M41.71,6.87c0-2,0-2,2.03-2c2,0,2,0,2,2.02c0,2.1,0,2.1-2.13,2.1C41.71,8.99,41.71,8.99,41.71,6.87z"/>
	<path class="st0" d="M45.73,11.56c0,2.05,0,2.05-2.07,2.05c-1.96,0-1.96,0-1.96-1.96c0-2.16,0-2.16,2.2-2.16
		C45.73,9.49,45.73,9.49,45.73,11.56z"/>
	<path class="st0" d="M37.1,108.27c0-1.99,0-1.99,2.03-1.99c1.99,0,1.99,0,1.99,2.01c0,2.11,0,2.11-2.13,2.11
		C37.1,110.4,37.1,110.4,37.1,108.27z"/>
	<path class="st0" d="M45.74,108.4c0,2,0,2-2.02,2c-2.01,0-2.01,0-2.01-2.02c0-2.1,0-2.1,2.15-2.1
		C45.74,106.28,45.74,106.28,45.74,108.4z"/>
	<path class="st0" d="M73.96,11.47c0-1.98,0-1.98,2.03-1.98c1.99,0,1.99,0,1.99,2.04c0,2.09,0,2.09-2.04,2.09
		C73.96,13.61,73.96,13.61,73.96,11.47z"/>
	<path class="st0" d="M41.12,16.24c0,1.99,0,1.99-2.03,1.99c-1.99,0-1.99,0-1.99-2.03c0-2.09,0-2.09,2.14-2.09
		C41.12,14.11,41.12,14.11,41.12,16.24z"/>
	<path class="st0" d="M69.34,108.26c0-1.98,0-1.98,2.03-1.98c2,0,2,0,2,2.02c0,2.1,0,2.1-2.15,2.1
		C69.34,110.4,69.34,110.4,69.34,108.26z"/>
	<path class="st0" d="M73.96,108.27c0-1.99,0-1.99,2.02-1.99c2,0,2,0,2,2.01c0,2.11,0,2.11-2.13,2.11
		C73.96,110.4,73.96,110.4,73.96,108.27z"/>
	<path class="st0" d="M80.61,106.28c1.97,0,1.97,0,1.97,1.92c0,2.19,0,2.19-2.15,2.19c-1.87,0-1.87,0-1.87-1.82
		c0-0.07,0-0.15,0-0.22C78.57,106.28,78.57,106.28,80.61,106.28z"/>
	<path class="st0" d="M87.2,108.42c0,1.98,0,1.98-2.03,1.98c-1.99,0-1.99,0-1.99-2.04c0-2.08,0-2.08,2.04-2.08
		C87.2,106.28,87.2,106.28,87.2,108.42z"/>
	<path class="st0" d="M91.82,108.34c0,2.06,0,2.06-2.07,2.06c-1.97,0-1.97,0-1.97-1.96c0-2.16,0-2.16,2.2-2.16
		C91.82,106.28,91.82,106.28,91.82,108.34z"/>
	<path class="st0" d="M45.73,16.25c0,1.98,0,1.98-2.03,1.98c-2,0-2,0-2-2.04c0-2.09,0-2.09,2.05-2.09
		C45.73,14.11,45.73,14.11,45.73,16.25z"/>
	<path class="st0" d="M73.37,16.22c0,2.01,0,2.01-2.02,2.01c-2.01,0-2.01,0-2.01-2c0-2.12,0-2.12,2.11-2.12
		C73.37,14.11,73.37,14.11,73.37,16.22z"/>
	<path class="st0" d="M71.38,18.73c1.98,0,1.98,0,1.98,1.93c0,2.19,0,2.19-2.17,2.19c-1.86,0-1.86,0-1.86-1.83c0-0.07,0-0.15,0-0.22
		C69.34,18.73,69.34,18.73,71.38,18.73z"/>
	<path class="st0" d="M48.35,23.35c2,0,2,0,2,2c0,2.04,0,2.04-1.99,2.04c-2.13,0-2.13,0-2.13-2.13
		C46.25,23.35,46.25,23.35,48.35,23.35z"/>
	<path class="st0" d="M57.61,23.35c1.98,0,1.98,0,1.98,2.03c0,2,0,2-2.03,2c-2.09,0-2.09,0-2.09-2.05
		C55.47,23.35,55.47,23.35,57.61,23.35z"/>
	<path class="st0" d="M60.09,25.24c0-1.89,0-1.89,1.9-1.89c2.22,0,2.22,0,2.22,2.24c0,1.8,0,1.8-1.8,1.8c-0.07,0-0.15,0-0.22,0
		C60.09,27.39,60.09,27.39,60.09,25.24z"/>
	<path class="st0" d="M66.76,23.35c2.06,0,2.06,0,2.06,2.07c0,1.97,0,1.97-1.96,1.97c-2.16,0-2.16,0-2.16-2.2
		C64.71,23.35,64.71,23.35,66.76,23.35z"/>
	<path class="st0" d="M101.56,85.3c0-2.02,0-2.02,2-2.02c2.12,0,2.12,0,2.12,2.12c0,1.9,0,1.9-1.89,1.9c-0.07,0-0.15,0-0.22,0
		C101.56,87.3,101.56,87.3,101.56,85.3z"/>
	<path class="st0" d="M112.86,45.83c-2.06,0-2.06,0-2.06-2.07c0-1.96,0-1.96,1.96-1.96c2.08,0,2.08,0,2.08,2.09
		C114.84,45.83,114.84,45.83,112.86,45.83z"/>
	<path class="st0" d="M91.82,43.95c0,1.88,0,1.88-1.91,1.88c-2.12,0-2.12,0-2.12-2.13c0-1.9,0-1.9,1.93-1.9
		C91.82,41.81,91.82,41.81,91.82,43.95z"/>
	<path class="st0" d="M27.28,76.16c0,1.92,0,1.92-1.91,1.92c-2.13,0-2.13,0-2.13-2.11c0-1.91,0-1.91,1.89-1.91
		C27.28,74.06,27.28,74.06,27.28,76.16z"/>
	<path class="st0" d="M27.87,76.01c0-1.95,0-1.95,1.94-1.95c2.08,0,2.08,0,2.08,2.06c0,1.96,0,1.96-1.96,1.96
		C27.87,78.07,27.87,78.07,27.87,76.01z"/>
	<path class="st0" d="M71.39,91.92c-2.05,0-2.05,0-2.05-2.07c0-1.96,0-1.96,1.96-1.96c2.07,0,2.07,0,2.07,2.09
		C73.36,91.92,73.36,91.92,71.39,91.92z"/>
	<path class="st0" d="M75.95,87.89c2.02,0,2.02,0,2.02,2.02c0,2.01,0,2.01-2.01,2.01c-2.01,0-2.01,0-2.01-2
		C73.96,87.89,73.96,87.89,75.95,87.89z"/>
	<path class="st0" d="M41.12,76.01c0,2.07,0,2.07-2.06,2.07c-1.96,0-1.96,0-1.96-1.96c0-2.06,0-2.06,2.07-2.06
		C41.12,74.06,41.12,74.06,41.12,76.01z"/>
	<path class="st0" d="M25.29,45.83c-2.04,0-2.04,0-2.04-2.08c0-1.95,0-1.95,1.97-1.95c2.06,0,2.06,0,2.06,2.1
		C27.28,45.83,27.28,45.83,25.29,45.83z"/>
	<path class="st0" d="M45.73,39.23c0,1.98,0,1.98-2.03,1.98c-2,0-2,0-2-2.03c0-1.99,0-1.99,1.94-1.99
		C45.73,37.2,45.73,37.2,45.73,39.23z"/>
	<path class="st0" d="M4.27,43.87c0,1.97,0,1.97-1.94,1.97c-2.1,0-2.1,0-2.1-2.15c0-1.88,0-1.88,1.85-1.88c0.04,0,0.07,0,0.11,0
		C4.27,41.81,4.27,41.81,4.27,43.87z"/>
	<path class="st0" d="M41.12,39.23c0,1.98,0,1.98-2.03,1.98c-1.99,0-1.99,0-1.99-2.03c0-1.99,0-1.99,2.04-1.99
		C41.12,37.2,41.12,37.2,41.12,39.23z"/>
	<path class="st0" d="M2.39,69.44c1.88,0,1.88,0,1.88,1.92c0,2.11,0,2.11-2.14,2.11c-1.9,0-1.9,0-1.9-1.93
		C0.23,69.44,0.23,69.44,2.39,69.44z"/>
	<path class="st0" d="M73.36,76.07c0,2,0,2-2.03,2c-2,0-2,0-2-2.02c0-2,0-2,2.02-2C73.36,74.06,73.36,74.06,73.36,76.07z"/>
	<path class="st0" d="M77.97,76.08c0,2,0,2-2.03,2c-1.99,0-1.99,0-1.99-2.03c0-1.99,0-1.99,2.02-1.99
		C77.97,74.06,77.97,74.06,77.97,76.08z"/>
	<path class="st0" d="M82.58,76.16c0,1.92,0,1.92-1.88,1.92c-2.13,0-2.13,0-2.13-2.11c0-1.91,0-1.91,1.89-1.91
		C82.58,74.06,82.58,74.06,82.58,76.16z"/>
	<path class="st0" d="M87.2,76.16c0,1.92,0,1.92-1.88,1.92c-2.14,0-2.14,0-2.14-2.11c0-1.91,0-1.91,1.89-1.91
		C87.2,74.06,87.2,74.06,87.2,76.16z"/>
	<path class="st0" d="M34.53,41.22c-2.05,0-2.05,0-2.05-2.07c0-1.95,0-1.95,1.97-1.95c2.05,0,2.05,0,2.05,2.08
		C36.5,41.22,36.5,41.22,34.53,41.22z"/>
	<path class="st0" d="M29.92,41.22c-2.05,0-2.05,0-2.05-2.07c0-1.95,0-1.95,1.96-1.95c2.06,0,2.06,0,2.06,2.08
		C31.89,41.22,31.89,41.22,29.92,41.22z"/>
	<path class="st0" d="M89.86,74.06c1.96,0,1.96,0,1.96,1.94c0,2.07,0,2.07-2.06,2.07c-1.98,0-1.98,0-1.98-1.95
		C87.79,74.06,87.79,74.06,89.86,74.06z"/>
	<path class="st0" d="M2.28,37.2c1.99,0,1.99,0,1.99,2.03c0,1.99,0,1.99-2.03,1.99c-2.01,0-2.01,0-2.01-2.02
		C0.23,37.2,0.23,37.2,2.28,37.2z"/>
	<path class="st0" d="M75.85,36.6c-1.89,0-1.89,0-1.89-1.9c0-2.11,0-2.11,2.12-2.11c1.9,0,1.9,0,1.9,1.9
		C77.97,36.6,77.97,36.6,75.85,36.6z"/>
	<path class="st0" d="M73.96,29.89c0-1.91,0-1.91,1.87-1.91c2.14,0,2.14,0,2.14,2.09c0,1.93,0,1.93-1.88,1.93
		C73.96,31.99,73.96,31.99,73.96,29.89z"/>
	<path class="st0" d="M82.58,43.93c0,1.91,0,1.91-1.88,1.91c-2.13,0-2.13,0-2.13-2.1c0-1.92,0-1.92,1.89-1.92
		C82.58,41.81,82.58,41.81,82.58,43.93z"/>
	<path class="st0" d="M25.25,73.47c-2,0-2,0-2-2.03c0-1.99,0-1.99,2.02-1.99c2.02,0,2.02,0,2.02,2.02
		C27.28,73.47,27.28,73.47,25.25,73.47z"/>
	<path class="st0" d="M112.78,78.07c-1.98,0-1.98,0-1.98-1.93c0-2.08,0-2.08,2.04-2.08c2,0,2,0,2,2.03
		C114.84,78.07,114.84,78.07,112.78,78.07z"/>
	<path class="st0" d="M37.1,29.86c0-1.89,0-1.89,1.91-1.89c2.11,0,2.11,0,2.11,2.12c0,1.9,0,1.9-1.9,1.9
		C37.1,31.99,37.1,31.99,37.1,29.86z"/>
	<path class="st0" d="M39.12,82.69c-2.02,0-2.02,0-2.02-2c0-2.02,0-2.02,2.01-2.02c2.02,0,2.02,0,2.02,2
		C41.12,82.69,41.12,82.69,39.12,82.69z"/>
	<path class="st0" d="M77.97,25.33c0,2.05,0,2.05-2.1,2.05c-1.92,0-1.92,0-1.92-1.89c0-2.14,0-2.14,2.09-2.14
		C77.97,23.35,77.97,23.35,77.97,25.33z"/>
	<path class="st0" d="M43.74,78.67c1.99,0,1.99,0,1.99,2.02c0,1.99,0,1.99-2.02,1.99c-2.01,0-2.01,0-2.01-2.02
		C41.71,78.67,41.71,78.67,43.74,78.67z"/>
	<path class="st0" d="M36.5,71.43c0,2.03,0,2.03-2,2.03c-2.02,0-2.02,0-2.02-2.01c0-2.02,0-2.02,2-2.02
		C36.5,69.44,36.5,69.44,36.5,71.43z"/>
	<path class="st0" d="M71.38,23.35c1.99,0,1.99,0,1.99,2.04c0,1.99,0,1.99-1.95,1.99c-2.08,0-2.08,0-2.08-2.06
		C69.34,23.35,69.34,23.35,71.38,23.35z"/>
	<path class="st0" d="M39.16,23.35c1.95,0,1.95,0,1.95,1.95c0,2.09,0,2.09-2.06,2.09c-1.96,0-1.96,0-1.96-1.97
		C37.1,23.35,37.1,23.35,39.16,23.35z"/>
	<path class="st0" d="M75.86,4.37c-1.91,0-1.91,0-1.91-1.89c0-2.15,0-2.15,2.1-2.15c1.92,0,1.92,0,1.92,1.91
		C77.97,4.37,77.97,4.37,75.86,4.37z"/>
	<path class="st0" d="M45.73,2.31c0,2.06,0,2.06-2.07,2.06c-1.96,0-1.96,0-1.96-1.96c0-2.08,0-2.08,2.09-2.08
		C45.73,0.33,45.73,0.33,45.73,2.31z"/>
	<path class="st0" d="M43.76,69.44c1.98,0,1.98,0,1.98,1.92c0,2.1,0,2.1-2.14,2.1c-1.88,0-1.88,0-1.88-1.83c0-0.04,0-0.07,0-0.11
		C41.71,69.44,41.71,69.44,43.76,69.44z"/>
	<path class="st0" d="M71.31,82.69c-1.97,0-1.97,0-1.97-1.93c0-2.08,0-2.08,2.04-2.08c1.99,0,1.99,0,1.99,1.93
		C73.36,82.69,73.36,82.69,71.31,82.69z"/>
	<path class="st0" d="M76,82.69c-2.05,0-2.05,0-2.05-2.08c0-1.94,0-1.94,1.96-1.94c2.06,0,2.06,0,2.06,2.08
		C77.97,82.69,77.97,82.69,76,82.69z"/>
	<path class="st0" d="M75.95,41.81c2.03,0,2.03,0,2.03,2.01c0,2.02,0,2.02-2,2.02c-2.02,0-2.02,0-2.02-1.99
		C73.96,41.81,73.96,41.81,75.95,41.81z"/>
	<path class="st0" d="M112.84,82.69c-2.04,0-2.04,0-2.04-2.09c0-1.93,0-1.93,1.98-1.93c2.06,0,2.06,0,2.06,2.09
		C114.84,82.69,114.84,82.69,112.84,82.69z"/>
	<path class="st0" d="M91.82,39.32c0,1.89,0,1.89-1.9,1.89c-2.13,0-2.13,0-2.13-2.12c0-1.9,0-1.9,1.92-1.9
		C91.82,37.2,91.82,37.2,91.82,39.32z"/>
	<path class="st0" d="M41.12,85.33c0,1.97,0,1.97-1.93,1.97c-2.09,0-2.09,0-2.09-2.15c0-1.87,0-1.87,1.83-1.87c0.04,0,0.07,0,0.11,0
		C41.12,83.28,41.12,83.28,41.12,85.33z"/>
	<path class="st0" d="M45.73,43.95c0,1.89,0,1.89-1.9,1.89c-2.13,0-2.13,0-2.13-2.12c0-1.91,0-1.91,1.92-1.91
		C45.73,41.81,45.73,41.81,45.73,43.95z"/>
	<path class="st0" d="M77.97,71.5c0,1.96,0,1.96-1.96,1.96c-2.06,0-2.06,0-2.06-2.08c0-1.95,0-1.95,1.95-1.95
		C77.97,69.44,77.97,69.44,77.97,71.5z"/>
	<path class="st0" d="M80.61,69.44c1.97,0,1.97,0,1.97,1.93c0,2.1,0,2.1-2.15,2.1c-1.87,0-1.87,0-1.87-1.83c0-0.04,0-0.07,0-0.11
		C78.57,69.44,78.57,69.44,80.61,69.44z"/>
	<path class="st0" d="M39.04,45.83c-1.94,0-1.94,0-1.94-1.97c0-2.06,0-2.06,2.09-2.06c1.93,0,1.93,0,1.93,1.98
		C41.12,45.83,41.12,45.83,39.04,45.83z"/>
	<path class="st0" d="M110.8,71.33c0-1.89,0-1.89,1.91-1.89c2.13,0,2.13,0,2.13,2.12c0,1.91,0,1.91-1.93,1.91
		C110.8,73.47,110.8,73.47,110.8,71.33z"/>
	<path class="st0" d="M73.36,85.21c0,2.08,0,2.08-2.05,2.08c-1.98,0-1.98,0-1.98-2.03c0-1.99,0-1.99,2.03-1.99c0.04,0,0.07,0,0.11,0
		C73.36,83.28,73.36,83.28,73.36,85.21z"/>
	<path class="st0" d="M77.97,85.33c0,1.97,0,1.97-1.93,1.97c-2.09,0-2.09,0-2.09-2.03c0-1.99,0-1.99,2.03-1.99
		C77.97,83.28,77.97,83.28,77.97,85.33z"/>
	<path class="st0" d="M87.2,85.39c0,1.91,0,1.91-1.87,1.91c-2.15,0-2.15,0-2.15-2.2c0-1.82,0-1.82,1.77-1.82c0.04,0,0.07,0,0.11,0
		C87.2,83.28,87.2,83.28,87.2,85.39z"/>
	<path class="st0" d="M2.31,74.06c1.97,0,1.97,0,1.97,1.94c0,2.08,0,2.08-2.06,2.08c-1.98,0-1.98,0-1.98-1.95
		C0.23,74.06,0.23,74.06,2.31,74.06z"/>
	<path class="st0" d="M41.12,112.89c0,2.05,0,2.05-2.09,2.05c-1.93,0-1.93,0-1.93-1.9c0-2.14,0-2.14,2.1-2.14
		C41.12,110.9,41.12,110.9,41.12,112.89z"/>
	<path class="st0" d="M82.58,39.22c0,1.99,0,1.99-2.02,1.99c-2,0-2,0-2-2.02c0-2,0-2,2.02-2C82.58,37.2,82.58,37.2,82.58,39.22z"/>
	<path class="st0" d="M36.5,43.82c0,2.01,0,2.01-2,2.01c-2.01,0-2.01,0-2.01-2c0-2.03,0-2.03,2-2.03
		C36.5,41.81,36.5,41.81,36.5,43.82z"/>
	<path class="st0" d="M71.43,110.9c1.94,0,1.94,0,1.94,1.99c0,2.05,0,2.05-2.11,2.05c-1.92,0-1.92,0-1.92-1.9
		C69.34,110.9,69.34,110.9,71.43,110.9z"/>
	<path class="st0" d="M82.59,112.91c0,2.03,0,2.03-2,2.03c-2.01,0-2.01,0-2.01-2.03c0-2.01,0-2.01,2.01-2.01
		C82.59,110.9,82.59,110.9,82.59,112.91z"/>
	<path class="st0" d="M112.67,87.3c-1.87,0-1.87,0-1.87-1.92c0-2.1,0-2.1,2.15-2.1c1.89,0,1.89,0,1.89,1.93
		C114.84,87.3,114.84,87.3,112.67,87.3z"/>
	<path class="st0" d="M71.29,41.22c-1.96,0-1.96,0-1.96-1.94c0-2.07,0-2.07,2.05-2.07c1.97,0,1.97,0,1.97,1.95
		C73.36,41.22,73.36,41.22,71.29,41.22z"/>
	<path class="st0" d="M45.73,89.93c0,1.99,0,1.99-2.02,1.99c-2,0-2,0-2-2.03c0-2.01,0-2.01,2.04-2.01
		C45.73,87.89,45.73,87.89,45.73,89.93z"/>
</g>
</svg>
