<?xml version="1.0" encoding="utf-8"?>
<!-- Generator: Adobe Illustrator 25.4.1, SVG Export Plug-In . SVG Version: 6.00 Build 0)  -->
<svg version="1.1" id="Layer_1" xmlns="http://www.w3.org/2000/svg" xmlns:xlink="http://www.w3.org/1999/xlink" x="0px" y="0px"
	 viewBox="0 0 121.3 121.3" style="enable-background:new 0 0 121.3 121.3;" xml:space="preserve">
<style type="text/css">
	.st0{fill:#FFFFFF;}
	.st1{fill-rule:evenodd;clip-rule:evenodd;fill:#212121;}
</style>
<path class="st0" d="M0,118.4V2.9C0,1.3,1.3,0,2.9,0h115.5c1.6,0,2.9,1.3,2.9,2.9v115.5c0,1.6-1.3,2.9-2.9,2.9H2.9
	C1.3,121.3,0,120,0,118.4z"/>
<g>
	<path class="st1" d="M35,19c0-5,0-10.1,0-15.1c0-0.8-0.2-1.1-1-1.1c-10,0-20.1,0-30.1,0C3,2.8,2.8,3.1,2.8,4c0,10,0,20,0,30
		c0,0.8,0.2,1.1,1.1,1.1c10,0,20.1,0,30.1,0c0.8,0,1-0.3,1-1.1C35,29,35,24,35,19z M29.6,30.6c-7.1,0-14.1,0-21.2,0
		c-0.7,0-0.9-0.2-0.9-0.9c0-7.1,0-14.2,0-21.3c0-0.7,0.2-0.9,0.9-0.9c7.1,0,14.2,0,21.3,0c0.8,0,0.9,0.4,0.9,1c0,3.5,0,7.1,0,10.6
		c0,3.5,0,7.1,0,10.6C30.5,30.3,30.3,30.6,29.6,30.6z"/>
	<path class="st1" d="M25.9,13c0-0.7-0.1-0.9-0.9-0.9c-4,0-8.1,0-12.1,0c-0.6,0-0.9,0.1-0.9,0.8c0,4.1,0,8.2,0,12.2
		c0,0.7,0.3,0.8,0.9,0.8c2,0,4,0,6.1,0c2,0,4,0,5.9,0c0.7,0,1-0.1,1-1C25.8,21,25.8,17,25.9,13z"/>
	<path class="st1" d="M118,3.9c0-0.8-0.2-1.1-1.1-1c-10.1,0-20.1,0-30.2,0c-0.8,0-1,0.2-1,1c0,10.1,0,20.1,0,30.2c0,0.8,0.2,1,1.1,1
		c5,0,10,0,15,0c5.1,0,10.1,0,15.2,0c0.8,0,1-0.2,1-1C118,24,118,14,118,3.9z M112.3,30.6c-6.9,0-13.8,0-20.7,0
		c-0.9,0-1.2-0.2-1.2-1.1c0-6.9,0-13.9,0-20.8c0-1,0.3-1.1,1.2-1.1c6.9,0,13.8,0,20.7,0c0.8,0,1.1,0.2,1.1,1.1
		c-0.1,3.5,0,7.1,0,10.6c0,3.5,0,6.9,0,10.4C113.4,30.4,113.1,30.6,112.3,30.6z"/>
	<path class="st1" d="M108.8,19c0-2,0-4,0-5.9c0-0.7-0.1-1-0.9-1c-4,0-8,0-12,0c-0.7,0-1,0.1-1,0.9c0,4,0,8.1,0,12.1
		c0,0.8,0.3,0.9,0.9,0.9c4,0,8,0,12,0c0.8,0,1-0.3,0.9-1C108.7,23,108.8,21,108.8,19z"/>
	<path class="st1" d="M35.1,86.9c0-0.8-0.2-1.1-1-1.1c-5,0-10.1,0-15.1,0c-5,0-9.9,0-14.9,0c-0.9,0-1.2,0.2-1.2,1.1c0,10,0,20,0,30
		c0,0.9,0.2,1.1,1.1,1.1c10,0,20,0,30,0c0.8,0,1.1-0.2,1.1-1.1C35,107,35,97,35.1,86.9z M29.6,113.5c-3.6,0-7.1,0-10.7,0
		c-3.5,0-7,0-10.5,0c-0.7,0-1-0.2-1-0.9c0-7.1,0-14.2,0-21.3c0-0.7,0.2-0.9,0.9-0.9c7.1,0,14.3,0,21.4,0c0.6,0,0.8,0.2,0.8,0.8
		c0,7.2,0,14.4,0,21.6C30.5,113.5,30.1,113.5,29.6,113.5z"/>
	<path class="st1" d="M25,95c-2,0-4,0-6.1,0s-4,0-6.1,0c-0.7,0-0.9,0.2-0.9,0.9c0,4,0,8.1,0,12.1c0,0.6,0.1,0.9,0.8,0.8
		c4.1,0,8.2,0,12.3,0c0.6,0,0.8-0.2,0.8-0.8c0-4.1,0-8.2,0-12.2C25.9,95.1,25.6,95,25,95z"/>
	<path class="st1" d="M14.2,71.8c-2,0-2,0-2-1.9c0-2.2,0-2.2,2.1-2.2c2,0,2,0,2,1.9C16.3,71.8,16.3,71.8,14.2,71.8z"/>
	<path class="st1" d="M11.7,51.3c0,2,0,2-1.9,2c-2.2,0-2.2,0-2.2-2.2c0-2,0-2,1.9-2C11.7,49.2,11.7,49.2,11.7,51.3z"/>
	<path class="st1" d="M57.8,9.8c0,2,0,2-2,2c-2.1,0-2.1,0-2.1-2.1c0-2,0-2,2-2C57.8,7.7,57.8,7.7,57.8,9.8z"/>
	<path class="st1" d="M62.4,9.8c0,2,0,2-2,2c-2.1,0-2.1,0-2.1-2.1c0-2,0-2,2-2C62.4,7.7,62.4,7.7,62.4,9.8z"/>
	<path class="st1" d="M67,9.8c0,2,0,2-2,2c-2.1,0-2.1,0-2.1-2.1c0-2,0-2,2-2C67,7.7,67,7.7,67,9.8z"/>
	<path class="st1" d="M19,49.2c2,0,2,0,2,1.9c0,2.2,0,2.2-2.2,2.2c-2,0-2,0-2-1.9C16.8,49.2,16.8,49.2,19,49.2z"/>
	<path class="st1" d="M51.1,16.4c-2,0-2,0-2-2c0-2.1,0-2.1,2.1-2.1c2,0,2,0,2,2C53.2,16.4,53.2,16.4,51.1,16.4z"/>
	<path class="st1" d="M53.7,14.3c0-2,0-2,2-2c2.1,0,2.1,0,2.1,2.1c0,2,0,2-2,2C53.7,16.4,53.7,16.4,53.7,14.3z"/>
	<path class="st1" d="M62.9,14.4c0-2.1,0-2.1,2.1-2.1c2,0,2,0,2,2.1c0,2.1,0,2.1-2.1,2.1C62.9,16.4,62.9,16.4,62.9,14.4z"/>
	<path class="st1" d="M23.6,49.2c2,0,2,0,2,2c0,2.1,0,2.1-2.1,2.1c-2,0-2,0-2-2C21.5,49.2,21.5,49.2,23.6,49.2z"/>
	<path class="st1" d="M25.6,65c0,2.1,0,2.1-2.1,2.1c-2,0-2,0-2-2c0-2.1,0-2.1,2.1-2.1C25.6,63,25.6,63,25.6,65z"/>
	<path class="st1" d="M69.6,67.1c-2,0-2,0-2-2c0-2.1,0-2.1,2.2-2.1c1.9,0,1.9,0,1.9,1.9c0,0.1,0,0.2,0,0.2
		C71.7,67.1,71.7,67.1,69.6,67.1z"/>
	<path class="st1" d="M57.8,19c0,2,0,2-2,2c-2.1,0-2.1,0-2.1-2.1c0-2,0-2,2-2C57.8,16.9,57.8,16.9,57.8,19z"/>
	<path class="st1" d="M60.5,16.9c2,0,2,0,2,1.9c0,2.2,0,2.2-2.2,2.2c-2,0-2,0-2-1.9C58.3,16.9,58.3,16.9,60.5,16.9z"/>
	<path class="st1" d="M67,18.9c0,2.2,0,2.2-2.2,2.2c-1.9,0-1.9,0-1.9-2c0-2.2,0-2.2,2.2-2.2C67,16.9,67,16.9,67,18.9z"/>
	<path class="st1" d="M71.7,18.9c0,2.2,0,2.2-2.2,2.2c-1.9,0-1.9,0-1.9-2c0-2.2,0-2.2,2.2-2.2C71.7,16.9,71.7,16.9,71.7,18.9z"/>
	<path class="st1" d="M97.1,67.1c-1.9,0-1.9,0-1.9-1.9c0-2.2,0-2.2,2.2-2.2c1.9,0,1.9,0,1.9,1.9C99.3,67.1,99.3,67.1,97.1,67.1z"/>
	<path class="st1" d="M53.2,23.6c0,2,0,2-2.1,2c-2,0-2,0-2-2.1c0-2,0-2,2.1-2C53.2,21.6,53.2,21.6,53.2,23.6z"/>
	<path class="st1" d="M62.4,23.6c0,2,0,2-2.1,2c-2.1,0-2.1,0-2.1-2.1c0-2,0-2,2.1-2C62.4,21.6,62.4,21.6,62.4,23.6z"/>
	<path class="st1" d="M53.7,51.3c0-2.1,0-2.1,2.1-2.1c2,0,2,0,2,2c0,2.1,0,2.1-2.1,2.1C53.7,53.3,53.7,53.3,53.7,51.3z"/>
	<path class="st1" d="M113.6,115.7c0-2,0-2,2-2c2.1,0,2.1,0,2.1,2.2c0,2,0,2-1.9,2c0,0-0.1,0-0.1,0
		C113.6,117.8,113.6,117.8,113.6,115.7z"/>
	<path class="st1" d="M62.4,106.6c0,2.1,0,2.1-2.1,2.1c-2,0-2,0-2-2.1c0-2.1,0-2.1,2.1-2.1C62.4,104.5,62.4,104.5,62.4,106.6z"/>
	<path class="st1" d="M58.3,51.2c0-2,0-2,2-2c2.1,0,2.1,0,2.1,2.2c0,1.9,0,1.9-1.9,1.9c-0.1,0-0.2,0-0.2,0
		C58.3,53.3,58.3,53.3,58.3,51.2z"/>
	<path class="st1" d="M64.9,53.3c-2,0-2,0-2-2c0-2.1,0-2.1,2.1-2.1c2,0,2,0,2,2C67,53.3,67,53.3,64.9,53.3z"/>
	<path class="st1" d="M69.5,53.3c-2,0-2,0-2-2c0-2.1,0-2.1,2.1-2.1c2,0,2,0,2,2C71.7,53.3,71.7,53.3,69.5,53.3z"/>
	<path class="st1" d="M51.2,63c2,0,2,0,2,2c0,2.1,0,2.1-2.1,2.1c-2,0-2,0-2-2C49.1,63,49.1,63,51.2,63z"/>
	<path class="st1" d="M51.1,108.6c-2,0-2,0-2-2c0-2.1,0-2.1,2.1-2.1c2,0,2,0,2,2C53.2,108.6,53.2,108.6,51.1,108.6z"/>
	<path class="st1" d="M115.6,104c-2,0-2,0-2-1.9c0-2.2,0-2.2,2.2-2.2c1.9,0,1.9,0,1.9,1.8c0,0.1,0,0.2,0,0.2
		C117.7,104,117.7,104,115.6,104z"/>
	<path class="st1" d="M97.1,104c-2,0-2,0-2-1.9c0-2.2,0-2.2,2.2-2.2c2,0,2,0,2,1.9C99.3,104,99.3,104,97.1,104z"/>
	<path class="st1" d="M99.3,60.5c0,2,0,2-2,2c-2.1,0-2.1,0-2.1-2.1c0-2,0-2,2-2C99.3,58.4,99.3,58.4,99.3,60.5z"/>
	<path class="st1" d="M97.3,49.2c2,0,2,0,2,2c0,2.1,0,2.1-2.1,2.1c-2,0-2,0-2-2C95.2,49.2,95.2,49.2,97.3,49.2z"/>
	<path class="st1" d="M108.5,51.3c0,2,0,2-2,2c-2.1,0-2.1,0-2.1-2.2c0-1.9,0-1.9,1.9-1.9c0.1,0,0.2,0,0.2,0
		C108.5,49.2,108.5,49.2,108.5,51.3z"/>
	<path class="st1" d="M60.4,99.9c2,0,2,0,2,2.1c0,2.1,0,2.1-2.1,2.1c-2,0-2,0-2-2.1C58.3,99.9,58.3,99.9,60.4,99.9z"/>
	<path class="st1" d="M9.8,57.9c-2.2,0-2.2,0-2.2-2.2c0-1.9,0-1.9,2-1.9c2.1,0,2.1,0,2.1,2.2C11.7,57.9,11.7,57.9,9.8,57.9z"/>
	<path class="st1" d="M55.8,104c-2.1,0-2.1,0-2.1-2.1s0-2.1,2.1-2.1s2.1,0,2.1,2.1S57.8,104,55.8,104z"/>
	<path class="st1" d="M51.1,104c-2,0-2,0-2-2c0-2.1,0-2.1,2.1-2.1c2,0,2,0,2,2C53.2,104,53.2,104,51.1,104z"/>
	<path class="st1" d="M12.2,55.8c0-2,0-2,2-2c2.1,0,2.1,0,2.1,2.1c0,2,0,2-2,2C12.2,57.9,12.2,57.9,12.2,55.8z"/>
	<path class="st1" d="M23.5,53.8c2,0,2,0,2,2.1c0,2,0,2-2.1,2c-2,0-2,0-2-2.1C21.5,53.8,21.5,53.8,23.5,53.8z"/>
	<path class="st1" d="M101.8,58.4c2.1,0,2.1,0,2.1,2c0,2.1,0,2.1-2.1,2.1c-2.1,0-2.1,0-2.1-2C99.8,58.4,99.8,58.4,101.8,58.4z"/>
	<path class="st1" d="M3,69.7c0-2.1,0-2.1,2.1-2.1c2.1,0,2.1,0,2.1,2c0,2.1,0,2.1-2.1,2.1C3,71.8,3,71.8,3,69.7z"/>
	<path class="st1" d="M103.9,97.4c0,2,0,2-2,2c-2.1,0-2.1,0-2.1-2.1c0-2,0-2,2-2C103.9,95.3,103.9,95.3,103.9,97.4z"/>
	<path class="st1" d="M97.3,95.3c2,0,2,0,2,2c0,2.1,0,2.1-2.1,2.1c-2,0-2,0-2-2C95.2,95.3,95.2,95.3,97.3,95.3z"/>
	<path class="st1" d="M60.4,95.3c2.1,0,2.1,0,2.1,2.1c0,2.1,0,2.1-2.1,2.1c-2.1,0-2.1,0-2.1-2.1C58.3,95.3,58.3,95.3,60.4,95.3z"/>
	<path class="st1" d="M69.5,7.2c-2,0-2,0-2-2c0-2.1,0-2.1,2.1-2.1c2,0,2,0,2,2C71.7,7.2,71.7,7.2,69.5,7.2z"/>
	<path class="st1" d="M111.1,58.4c2.1,0,2.1,0,2.1,2.1c0,2,0,2-2.1,2c-2.1,0-2.1,0-2.1-2.1C109,58.4,109,58.4,111.1,58.4z"/>
	<path class="st1" d="M49.1,55.8c0-2,0-2,2.1-2c2,0,2,0,2,2.1c0,2,0,2-2.1,2C49.1,57.9,49.1,57.9,49.1,55.8z"/>
	<path class="st1" d="M55.8,57.9c-2.1,0-2.1,0-2.1-2.1c0-2,0-2,2-2c2.1,0,2.1,0,2.1,2.1C57.8,57.9,57.8,57.9,55.8,57.9z"/>
	<path class="st1" d="M71.7,106.6c0,2,0,2-2,2c-2.1,0-2.1,0-2.1-2.1c0-2,0-2,2-2C71.7,104.5,71.7,104.5,71.7,106.6z"/>
	<path class="st1" d="M113.1,101.9c0,2.2,0,2.2-2.2,2.2c-1.9,0-1.9,0-1.9-1.9c0-2.3,0-2.3,2.3-2.3
		C113.1,99.9,113.1,99.9,113.1,101.9z"/>
	<path class="st1" d="M67,106.5c0,2.1,0,2.1-2.1,2.1c-2,0-2,0-2-2c0-2.1,0-2.1,2.1-2.1C67,104.5,67,104.5,67,106.5z"/>
	<path class="st1" d="M67.1,55.7c0,2.2,0,2.2-2.2,2.2c-2,0-2,0-2-2c0-2.2,0-2.2,2.2-2.2C67.1,53.8,67.1,53.8,67.1,55.7z"/>
	<path class="st1" d="M58.3,65.1c0-2,0-2,2.1-2c2,0,2,0,2,2.1c0,2,0,2-2.1,2C58.3,67.1,58.3,67.1,58.3,65.1z"/>
	<path class="st1" d="M108.5,69.7c0,2.1,0,2.1-2.1,2.1c-2.1,0-2.1,0-2.1-2.1c0-2.1,0-2.1,2.1-2.1C108.5,67.6,108.5,67.6,108.5,69.7z
		"/>
	<path class="st1" d="M16.3,60.5c0,2,0,2-2.1,2c-2,0-2,0-2-2.1c0-2,0-2,2.1-2C16.3,58.4,16.3,58.4,16.3,60.5z"/>
	<path class="st1" d="M23.5,62.5c-2,0-2,0-2-2c0-2.1,0-2.1,2.1-2.1c2,0,2,0,2,2C25.6,62.5,25.6,62.5,23.5,62.5z"/>
	<path class="st1" d="M95.2,69.7c0-2,0-2,2-2c2.1,0,2.1,0,2.1,2.1c0,2,0,2-2,2C95.2,71.8,95.2,71.8,95.2,69.7z"/>
	<path class="st1" d="M71.7,69.8c0,1.9,0,1.9-1.9,1.9c-2.2,0-2.2,0-2.2-2.2c0-1.9,0-1.9,1.9-1.9C71.7,67.6,71.7,67.6,71.7,69.8z"/>
	<path class="st1" d="M67,69.7c0,2.1,0,2.1-2.1,2.1c-2.1,0-2.1,0-2.1-2.1s0-2.1,2.1-2.1C67,67.6,67,67.6,67,69.7z"/>
	<path class="st1" d="M60.3,71.8c-2,0-2,0-2-1.9c0-2.2,0-2.2,2.2-2.2c2,0,2,0,2,1.9C62.4,71.8,62.4,71.8,60.3,71.8z"/>
	<path class="st1" d="M7.1,65.2c0,2,0,2-1.9,2C3,67.2,3,67.2,3,65c0-2,0-2,1.9-2C7.1,63,7.1,63,7.1,65.2z"/>
	<path class="st1" d="M11.7,65.1c0,2.1,0,2.1-2.1,2.1s-2.1,0-2.1-2.1c0-2.1,0-2.1,2.1-2.1C11.7,63,11.7,63,11.7,65.1z"/>
	<path class="st1" d="M53.7,69.7c0-2,0-2,2-2c2.1,0,2.1,0,2.1,2.1c0,2,0,2-2,2C53.7,71.8,53.7,71.8,53.7,69.7z"/>
	<path class="st1" d="M23.5,71.8c-2,0-2,0-2-2c0-2.1,0-2.1,2.1-2.1c2,0,2,0,2,2C25.6,71.8,25.6,71.8,23.5,71.8z"/>
	<path class="st1" d="M21,69.7c0,2,0,2-2.1,2c-2,0-2,0-2-2.1c0-2,0-2,2.1-2C21,67.6,21,67.6,21,69.7z"/>
	<path class="st1" d="M14.3,63c2,0,2,0,2,2c0,2.1,0,2.1-2.1,2.1c-2,0-2,0-2-2C12.2,63,12.2,63,14.3,63z"/>
	<path class="st1" d="M95.2,106.7c0-2.2,0-2.2,2.2-2.2c1.9,0,1.9,0,1.9,2c0,2.2,0,2.2-2.2,2.2C95.2,108.6,95.2,108.6,95.2,106.7z"/>
	<path class="st1" d="M108.5,106.5c0,2.2,0,2.2-2.2,2.2c-1.9,0-1.9,0-1.9-2c0-2.2,0-2.2,2.2-2.2
		C108.5,104.5,108.5,104.5,108.5,106.5z"/>
	<path class="st1" d="M115.6,108.6c-2,0-2,0-2-2c0-2.1,0-2.1,2.1-2.1c2,0,2,0,2,2C117.7,108.6,117.7,108.6,115.6,108.6z"/>
	<path class="st1" d="M55.7,113.2c-2,0-2,0-2-2c0-2.1,0-2.1,2.1-2.1c2,0,2,0,2,2C57.8,113.2,57.8,113.2,55.7,113.2z"/>
	<path class="st1" d="M69.5,113.2c-2,0-2,0-2-2c0-2.1,0-2.1,2.1-2.1c2,0,2,0,2,2C71.7,113.2,71.7,113.2,69.5,113.2z"/>
	<path class="st1" d="M99.3,111.2c0,2,0,2-2,2c-2.1,0-2.1,0-2.1-2.1c0-2,0-2,2-2C99.3,109.1,99.3,109.1,99.3,111.2z"/>
	<path class="st1" d="M103.9,111.2c0,2,0,2-2,2c-2.1,0-2.1,0-2.1-2.1c0-2,0-2,2-2C103.9,109.1,103.9,109.1,103.9,111.2z"/>
	<path class="st1" d="M111,113.2c-2,0-2,0-2-2c0-2.1,0-2.1,2-2.1c2.1,0,2.1,0,2.1,2C113.1,113.2,113.1,113.2,111,113.2z"/>
	<path class="st1" d="M51.2,113.7c2,0,2,0,2,1.9c0,2.2,0,2.2-2.2,2.2c-2,0-2,0-2-1.9C49.1,113.7,49.1,113.7,51.2,113.7z"/>
	<path class="st1" d="M69.6,113.7c2,0,2,0,2,2c0,2.1,0,2.1-2.1,2.1c-2,0-2,0-2-2C67.5,113.7,67.5,113.7,69.6,113.7z"/>
	<path class="st1" d="M106.5,113.7c2,0,2,0,2,2c0,2.1,0,2.1-2.1,2.1c-2,0-2,0-2-2C104.4,113.7,104.4,113.7,106.5,113.7z"/>
	<path class="st1" d="M111.1,113.7c2.1,0,2.1,0,2.1,2.1c0,2,0,2-2.1,2s-2.1,0-2.1-2.1C109,113.7,109,113.7,111.1,113.7z"/>
	<path class="st1" d="M51.1,34.8c-2,0-2,0-2-2c0-2,0-2,2-2c2.1,0,2.1,0,2.1,2.1C53.2,34.8,53.2,34.8,51.1,34.8z"/>
	<path class="st1" d="M60.5,30.8c2,0,2,0,2,2c0,2,0,2-2,2c-2.1,0-2.1,0-2.1-2C58.3,30.8,58.3,30.8,60.5,30.8z"/>
	<path class="st1" d="M69.6,34.8c-2.1,0-2.1,0-2.1-2c0-2,0-2,1.9-2c2.2,0,2.2,0,2.2,2.1C71.7,34.8,71.7,34.8,69.6,34.8z"/>
	<path class="st1" d="M60.3,39.4c-2,0-2,0-2-2c0-2,0-2,2-2c2.1,0,2.1,0,2.1,2.1C62.4,39.4,62.4,39.4,60.3,39.4z"/>
	<path class="st1" d="M9.6,44.1c-2,0-2,0-2-2c0-2,0-2,2-2c2.1,0,2.1,0,2.1,2.1C11.7,44.1,11.7,44.1,9.6,44.1z"/>
	<path class="st1" d="M14.3,40c2.1,0,2.1,0,2.1,2c0,2,0,2-1.9,2c-2.2,0-2.2,0-2.2-2.2C12.2,40,12.2,40,14.3,40z"/>
	<path class="st1" d="M18.8,44.1c-2,0-2,0-2-1.9c0-2.1,0-2.1,2-2.1c2.1,0,2.1,0,2.1,2C21,44.1,21,44.1,18.8,44.1z"/>
	<path class="st1" d="M23.5,44.1c-2,0-2,0-2-2c0-2,0-2,2-2c2.1,0,2.1,0,2.1,2.1C25.6,44.1,25.6,44.1,23.5,44.1z"/>
	<path class="st1" d="M51.1,44.1c-2,0-2,0-2-2s0-2,2-2c2.1,0,2.1,0,2.1,2.1C53.2,44.1,53.2,44.1,51.1,44.1z"/>
	<path class="st1" d="M65.1,40c2,0,2,0,2,1.9c0,2.1,0,2.1-2,2.1c-2.1,0-2.1,0-2.1-2C62.9,40,62.9,40,65.1,40z"/>
	<path class="st1" d="M69.6,44.1c-2,0-2,0-2-2.1c0-1.9,0-1.9,2-1.9c2.2,0,2.2,0,2.2,2.2C71.7,44.1,71.7,44.1,69.6,44.1z"/>
	<path class="st1" d="M101.8,44.1c-2,0-2,0-2-2s0-2,2-2c2.1,0,2.1,0,2.1,2.1C103.9,44.1,103.9,44.1,101.8,44.1z"/>
	<path class="st1" d="M111,44.1c-2,0-2,0-2-1.9c0-2.1,0-2.1,2.1-2.1c2,0,2,0,2,1.9C113.1,44.1,113.1,44.1,111,44.1z"/>
	<path class="st1" d="M14.3,44.6c2,0,2,0,2,2c0,2,0,2-2,2c-2.1,0-2.1,0-2.1-2.1C12.2,44.6,12.2,44.6,14.3,44.6z"/>
	<path class="st1" d="M23.4,48.7c-2,0-2,0-2-1.9c0-2.1,0-2.1,2.1-2.1c2,0,2,0,2,1.9C25.6,48.7,25.6,48.7,23.4,48.7z"/>
	<path class="st1" d="M55.7,48.7c-2,0-2,0-2-2.1c0-2,0-2,2-2c2.2,0,2.2,0,2.2,2.2C57.8,48.7,57.8,48.7,55.7,48.7z"/>
	<path class="st1" d="M69.6,48.7c-2,0-2,0-2-2c0-2,0-2,2.1-2c2,0,2,0,2,2C71.7,48.7,71.7,48.7,69.6,48.7z"/>
	<path class="st1" d="M97.3,44.6c2,0,2,0,2,2c0,2,0,2-2,2c-2.1,0-2.1,0-2.1-2.1C95.2,44.6,95.2,44.6,97.3,44.6z"/>
	<path class="st1" d="M34.7,51.3c0,2,0,2-2,2c-2,0-2,0-2-2c0-2.1,0-2.1,2.1-2.1C34.7,49.2,34.7,49.2,34.7,51.3z"/>
	<path class="st1" d="M44,51.3c0,2,0,2-2,2c-2,0-2,0-2-2c0-2.1,0-2.1,2.1-2.1C44,49.2,44,49.2,44,51.3z"/>
	<path class="st1" d="M44.5,51.1c0-1.9,0-1.9,2-1.9c2,0,2,0,2,2.1c0,2,0,2-2.1,2C44.5,53.3,44.5,53.3,44.5,51.1z"/>
	<path class="st1" d="M85.4,51.3c0,2,0,2-2,2c-2,0-2,0-2-2c0-2.1,0-2.1,2.1-2.1C85.4,49.2,85.4,49.2,85.4,51.3z"/>
	<path class="st1" d="M90,51.2c0,2.1,0,2.1-2,2.1c-2,0-2,0-2-2c0-2.1,0-2.1,2.1-2.1C90,49.2,90,49.2,90,51.2z"/>
	<path class="st1" d="M30.1,55.9c0,2,0,2-2.1,2c-1.9,0-1.9,0-1.9-2c0-2.2,0-2.2,2.2-2.2C30.1,53.8,30.1,53.8,30.1,55.9z"/>
	<path class="st1" d="M44.5,55.8c0-2,0-2,2-2c2,0,2,0,2,2c0,2.1,0,2.1-2.1,2.1C44.5,57.9,44.5,57.9,44.5,55.8z"/>
	<path class="st1" d="M76.8,55.8c0-2,0-2,2.1-2c1.9,0,1.9,0,1.9,2c0,2.1,0,2.1-2.1,2.1C76.8,57.9,76.8,57.9,76.8,55.8z"/>
	<path class="st1" d="M26.1,60.4c0-2,0-2,2-2c2,0,2,0,2,2.1c0,2,0,2-2,2C26.1,62.5,26.1,62.5,26.1,60.4z"/>
	<path class="st1" d="M32.6,62.5c-1.9,0-1.9,0-1.9-1.9c0-2.2,0-2.2,2.2-2.2c1.8,0,1.8,0,1.8,1.8c0,0.1,0,0.2,0,0.2
		C34.7,62.5,34.7,62.5,32.6,62.5z"/>
	<path class="st1" d="M39.3,60.5c0,2,0,2-2,2c-2,0-2,0-2-2c0-2.1,0-2.1,2.1-2.1C39.3,58.4,39.3,58.4,39.3,60.5z"/>
	<path class="st1" d="M48.6,60.5c0,2,0,2-2.1,2c-1.9,0-1.9,0-1.9-2c0-2.1,0-2.1,2.1-2.1C48.6,58.4,48.6,58.4,48.6,60.5z"/>
	<path class="st1" d="M76.2,60.5c0,2,0,2-2,2c-2,0-2,0-2-2c0-2.1,0-2.1,2.1-2.1C76.2,58.4,76.2,58.4,76.2,60.5z"/>
	<path class="st1" d="M80.8,60.6c0,2,0,2-1.9,2c-2.1,0-2.1,0-2.1-2c0-2.1,0-2.1,2.1-2.1C80.8,58.4,80.8,58.4,80.8,60.6z"/>
	<path class="st1" d="M94.7,60.5c0,2,0,2-2,2c-2.1,0-2.1,0-2.1-2.1c0-2,0-2,2-2C94.7,58.4,94.7,58.4,94.7,60.5z"/>
	<path class="st1" d="M117.7,60.6c0,2,0,2-2,2c-2.1,0-2.1,0-2.1-2.1c0-2.1,0-2.1,2.1-2.1C117.7,58.4,117.7,58.4,117.7,60.6z"/>
	<path class="st1" d="M26.1,65c0-2,0-2,1.9-2c2.1,0,2.1,0,2.1,2.2c0,2,0,2-2,2C26.1,67.1,26.1,67.1,26.1,65z"/>
	<path class="st1" d="M35.3,65c0-2,0-2,2-2c2,0,2,0,2,2c0,2.1,0,2.1-2.1,2.1C35.3,67.1,35.3,67.1,35.3,65z"/>
	<path class="st1" d="M72.2,65.1c0-2,0-2,2.1-2c1.9,0,1.9,0,1.9,2c0,2.2,0,2.2-2.2,2.2C72.2,67.1,72.2,67.1,72.2,65.1z"/>
	<path class="st1" d="M94.7,65c0,2.2,0,2.2-2.1,2.2c-1.9,0-1.9,0-1.9-2c0-2.1,0-2.1,2.1-2.1C94.7,63,94.7,63,94.7,65z"/>
	<path class="st1" d="M80.8,23.7c0,2,0,2-2,2c-2,0-2,0-2-2c0-2.1,0-2.1,2.1-2.1C80.8,21.6,80.8,21.6,80.8,23.7z"/>
	<path class="st1" d="M30.7,69.6c0-1.9,0-1.9,1.9-1.9c2.1,0,2.1,0,2.1,2c0,2.1,0,2.1-2,2.1C30.7,71.8,30.7,71.8,30.7,69.6z"/>
	<path class="st1" d="M35.3,69.6c0-2,0-2,2-2c2,0,2,0,2,2c0,2.1,0,2.1-2.1,2.1C35.3,71.8,35.3,71.8,35.3,69.6z"/>
	<path class="st1" d="M48.6,69.8c0,2,0,2-2,2c-2,0-2,0-2-2c0-2.1,0-2.1,2.1-2.1C48.6,67.6,48.6,67.6,48.6,69.8z"/>
	<path class="st1" d="M85.4,69.6c0,2.1,0,2.1-2.1,2.1c-1.9,0-1.9,0-1.9-1.9c0-2.2,0-2.2,2.2-2.2C85.4,67.6,85.4,67.6,85.4,69.6z"/>
	<path class="st1" d="M90,69.7c0,2,0,2-2,2c-2,0-2,0-2-2c0-2.1,0-2.1,2.1-2.1C90,67.6,90,67.6,90,69.7z"/>
	<path class="st1" d="M23.6,72.3c2,0,2,0,2,1.9c0,2.1,0,2.1-2,2.1c-2.1,0-2.1,0-2.1-2.1C21.5,72.3,21.5,72.3,23.6,72.3z"/>
	<path class="st1" d="M55.8,76.3c-2.1,0-2.1,0-2.1-2.1c0-1.9,0-1.9,1.9-1.9c2.2,0,2.2,0,2.2,2.2C57.8,76.3,57.8,76.3,55.8,76.3z"/>
	<path class="st1" d="M69.7,72.3c2,0,2,0,2,1.9c0,2.1,0,2.1-2,2.1c-2.1,0-2.1,0-2.1-2.1C67.5,72.3,67.5,72.3,69.7,72.3z"/>
	<path class="st1" d="M111.1,72.3c2.1,0,2.1,0,2.1,2.1c0,2,0,2-2,2c-2.2,0-2.2,0-2.2-2.2C109,72.3,109,72.3,111.1,72.3z"/>
	<path class="st1" d="M14.3,76.9c2.1,0,2.1,0,2.1,2.1c0,1.9,0,1.9-2,1.9c-2.2,0-2.2,0-2.2-2.2C12.2,76.9,12.2,76.9,14.3,76.9z"/>
	<path class="st1" d="M18.9,76.9c2,0,2,0,2,2.1c0,1.9,0,1.9-2,1.9c-2.1,0-2.1,0-2.1-2.1C16.8,76.9,16.8,76.9,18.9,76.9z"/>
	<path class="st1" d="M23.6,76.9c2,0,2,0,2,2c0,2,0,2-2,2c-2.1,0-2.1,0-2.1-2.1C21.5,76.9,21.5,76.9,23.6,76.9z"/>
	<path class="st1" d="M53.2,78.9c0,2.1,0,2.1-2.1,2.1c-2,0-2,0-2-2.1c0-1.9,0-1.9,2-1.9c0.1,0,0.2,0,0.2,0
		C53.2,76.9,53.2,76.9,53.2,78.9z"/>
	<path class="st1" d="M60.3,80.9c-2,0-2,0-2-2c0-2,0-2,2-2c2.1,0,2.1,0,2.1,2.1C62.4,80.9,62.4,80.9,60.3,80.9z"/>
	<path class="st1" d="M71.7,78.8c0,2.1,0,2.1-2.1,2.1c-2.1,0-2.1,0-2.1-2.1c0-2,0-2,1.9-2c0.1,0,0.2,0,0.2,0
		C71.7,76.9,71.7,76.9,71.7,78.8z"/>
	<path class="st1" d="M97.2,80.9c-2.1,0-2.1,0-2.1-2.1c0-2,0-2,1.9-2c2.2,0,2.2,0,2.2,2.2C99.3,80.9,99.3,80.9,97.2,80.9z"/>
	<path class="st1" d="M101.9,76.9c2,0,2,0,2,2c0,2,0,2-2,2c-2.1,0-2.1,0-2.1-2.2C99.8,76.9,99.8,76.9,101.9,76.9z"/>
	<path class="st1" d="M51.2,81.5c2,0,2,0,2,2s0,2-2,2c-2.1,0-2.1,0-2.1-2.1C49.1,81.5,49.1,81.5,51.2,81.5z"/>
	<path class="st1" d="M55.8,81.5c2,0,2,0,2,2.1c0,1.9,0,1.9-2,1.9c-2.2,0-2.2,0-2.2-2.2C53.7,81.5,53.7,81.5,55.8,81.5z"/>
	<path class="st1" d="M99.3,83.5c0,2.1,0,2.1-2.1,2.1c-2.1,0-2.1,0-2.1-2.1c0-1.9,0-1.9,2-1.9c0.1,0,0.2,0,0.2,0
		C99.3,81.5,99.3,81.5,99.3,83.5z"/>
	<path class="st1" d="M51.2,90.1c-2.1,0-2.1,0-2.1-2.1c0-1.9,0-1.9,1.9-1.9c2.2,0,2.2,0,2.2,2.1C53.2,90.1,53.2,90.1,51.2,90.1z"/>
	<path class="st1" d="M55.7,90.1c-2,0-2,0-2-2c0-2,0-2,2-2c2.1,0,2.1,0,2.1,2C57.8,90.1,57.8,90.1,55.7,90.1z"/>
	<path class="st1" d="M60.5,90.1c-2.2,0-2.2,0-2.2-2.2c0-1.8,0-1.8,1.9-1.8c2.3,0,2.3,0,2.3,2.3C62.4,90.1,62.4,90.1,60.5,90.1z"/>
	<path class="st1" d="M64.9,90.1c-2,0-2,0-2-2c0-2,0-2,2-2c2.1,0,2.1,0,2.1,2.1C67,90.1,67,90.1,64.9,90.1z"/>
	<path class="st1" d="M69.6,90.1c-2,0-2,0-2-2.1c0-2,0-2,1.9-2c2.2,0,2.2,0,2.2,2.2C71.7,90.1,71.7,90.1,69.6,90.1z"/>
	<path class="st1" d="M97.2,90.1c-2,0-2,0-2-2.1c0-1.9,0-1.9,2-1.9c2.1,0,2.1,0,2.1,2.1C99.3,90.1,99.3,90.1,97.2,90.1z"/>
	<path class="st1" d="M111.1,90.1c-2.1,0-2.1,0-2.1-2.1c0-2,0-2,1.9-2c2.2,0,2.2,0,2.2,2.2C113.1,90.1,113.1,90.1,111.1,90.1z"/>
	<path class="st1" d="M53.2,92.8c0,1.9,0,1.9-1.9,1.9c-2.2,0-2.2,0-2.2-2.2c0-1.9,0-1.9,1.8-1.9c0.1,0,0.2,0,0.2,0
		C53.2,90.7,53.2,90.7,53.2,92.8z"/>
	<path class="st1" d="M57.8,92.8c0,2,0,2-1.9,2c-2.2,0-2.2,0-2.2-2.2c0-1.9,0-1.9,1.8-1.9c0.1,0,0.2,0,0.2,0
		C57.8,90.7,57.8,90.7,57.8,92.8z"/>
	<path class="st1" d="M60.3,94.8c-2,0-2,0-2-1.9c0-2.1,0-2.1,2.2-2.1c2,0,2,0,2,1.9C62.4,94.8,62.4,94.8,60.3,94.8z"/>
	<path class="st1" d="M65.1,90.7c2,0,2,0,2,2c0,2.1,0,2.1-2.1,2.1c-2.1,0-2.1,0-2.1-2.1C62.9,90.7,62.9,90.7,65.1,90.7z"/>
	<path class="st1" d="M97.3,94.8c-2.1,0-2.1,0-2.1-2.1c0-1.9,0-1.9,1.9-1.9c2.2,0,2.2,0,2.2,2.2C99.3,94.8,99.3,94.8,97.3,94.8z"/>
	<path class="st1" d="M101.8,94.8c-2,0-2,0-2-2s0-2,2-2c2.1,0,2.1,0,2.1,2.2C103.9,94.8,103.9,94.8,101.8,94.8z"/>
	<path class="st1" d="M42,99.4c-2,0-2,0-2-2c0-2.1,0-2.1,2.1-2.1c1.9,0,1.9,0,1.9,1.9c0,0.1,0,0.2,0,0.2C44,99.4,44,99.4,42,99.4z"
		/>
	<path class="st1" d="M76.2,97.4c0,2,0,2-2,2c-2,0-2,0-2-2c0-2.1,0-2.1,2.1-2.1C76.2,95.3,76.2,95.3,76.2,97.4z"/>
	<path class="st1" d="M76.8,97.3c0-2,0-2,2-2c2,0,2,0,2,2c0,2.1,0,2.1-2.1,2.1C76.8,99.4,76.8,99.4,76.8,97.3z"/>
	<path class="st1" d="M81.4,97.3c0-2,0-2,2.1-2c1.9,0,1.9,0,1.9,1.9c0,2.2,0,2.2-2.2,2.2C81.4,99.4,81.4,99.4,81.4,97.3z"/>
	<path class="st1" d="M90,97.3c0,2,0,2-2.1,2c-1.9,0-1.9,0-1.9-2c0-2.2,0-2.2,2.2-2.2C90,95.3,90,95.3,90,97.3z"/>
	<path class="st1" d="M92.7,99.4c-2.1,0-2.1,0-2.1-2.1c0-2.1,0-2.1,2.1-2.1c1.9,0,1.9,0,1.9,2c0,0.1,0,0.2,0,0.2
		C94.7,99.4,94.7,99.4,92.7,99.4z"/>
	<path class="st1" d="M44,102c0,2,0,2-2.1,2c-1.9,0-1.9,0-1.9-2c0-2.2,0-2.2,2.2-2.2C44,99.9,44,99.9,44,102z"/>
	<path class="st1" d="M78.8,99.9c2.1,0,2.1,0,2.1,2.1c0,2,0,2-2.1,2c-1.9,0-1.9,0-1.9-2c0-0.1,0-0.2,0-0.2
		C76.8,99.9,76.8,99.9,78.8,99.9z"/>
	<path class="st1" d="M85.4,102c0,2,0,2-2,2c-2,0-2,0-2-2c0-2.1,0-2.1,2.1-2.1C85.4,99.9,85.4,99.9,85.4,102z"/>
	<path class="st1" d="M90,102c0,2,0,2-2,2c-2,0-2,0-2-2c0-2.1,0-2.1,2-2.1C90,99.9,90,99.9,90,102z"/>
	<path class="st1" d="M44,55.9c0,2,0,2-2,2s-2,0-2-2c0-2.1,0-2.1,2.1-2.1C44,53.8,44,53.8,44,55.9z"/>
	<path class="st1" d="M44,106.6c0,2,0,2-1.9,2c-2.1,0-2.1,0-2.1-2c0-2.1,0-2.1,2-2.1C44,104.5,44,104.5,44,106.6z"/>
	<path class="st1" d="M48.6,106.5c0,2.2,0,2.2-2.2,2.2c-1.8,0-1.8,0-1.8-1.9c0-2.3,0-2.3,2.2-2.3C48.6,104.5,48.6,104.5,48.6,106.5z
		"/>
	<path class="st1" d="M90,106.6c0,2.1,0,2.1-2.1,2.1c-2,0-2,0-2-1.9c0-2.2,0-2.2,2.2-2.2C90,104.5,90,104.5,90,106.6z"/>
	<path class="st1" d="M44,9.8c0,2,0,2-2,2s-2,0-2-2c0-2.1,0-2.1,2.1-2.1C44,7.7,44,7.7,44,9.8z"/>
	<path class="st1" d="M44.5,9.7c0-2,0-2,2-2c2,0,2,0,2,2c0,2.1,0,2.1-2.1,2.1C44.5,11.8,44.5,11.8,44.5,9.7z"/>
	<path class="st1" d="M48.6,14.4c0,2.1,0,2.1-2.1,2.1c-2,0-2,0-2-2c0-2.2,0-2.2,2.2-2.2C48.6,12.3,48.6,12.3,48.6,14.4z"/>
	<path class="st1" d="M39.9,111.1c0-2,0-2,2-2c2,0,2,0,2,2c0,2.1,0,2.1-2.1,2.1C39.9,113.2,39.9,113.2,39.9,111.1z"/>
	<path class="st1" d="M48.6,111.2c0,2,0,2-2,2c-2,0-2,0-2-2c0-2.1,0-2.1,2.2-2.1C48.6,109.1,48.6,109.1,48.6,111.2z"/>
	<path class="st1" d="M76.8,14.3c0-2,0-2,2-2c2,0,2,0,2,2c0,2.1,0,2.1-2,2.1C76.8,16.4,76.8,16.4,76.8,14.3z"/>
	<path class="st1" d="M44,19.1c0,2,0,2-2,2c-2,0-2,0-2-2c0-2.1,0-2.1,2.1-2.1C44,16.9,44,16.9,44,19.1z"/>
	<path class="st1" d="M72.2,111.1c0-2,0-2,2-2c2,0,2,0,2,2c0,2.1,0,2.1-2.2,2.1C72.2,113.2,72.2,113.2,72.2,111.1z"/>
	<path class="st1" d="M76.8,111.1c0-2,0-2,2-2c2,0,2,0,2,2c0,2.1,0,2.1-2.1,2.1C76.8,113.2,76.8,113.2,76.8,111.1z"/>
	<path class="st1" d="M83.4,109.1c2,0,2,0,2,1.9c0,2.2,0,2.2-2.2,2.2c-1.9,0-1.9,0-1.9-1.8c0-0.1,0-0.2,0-0.2
		C81.4,109.1,81.4,109.1,83.4,109.1z"/>
	<path class="st1" d="M90,111.3c0,2,0,2-2,2c-2,0-2,0-2-2c0-2.1,0-2.1,2-2.1C90,109.1,90,109.1,90,111.3z"/>
	<path class="st1" d="M94.7,111.2c0,2.1,0,2.1-2.1,2.1c-2,0-2,0-2-2c0-2.2,0-2.2,2.2-2.2C94.7,109.1,94.7,109.1,94.7,111.2z"/>
	<path class="st1" d="M48.6,19.1c0,2,0,2-2,2c-2,0-2,0-2-2c0-2.1,0-2.1,2-2.1C48.6,16.9,48.6,16.9,48.6,19.1z"/>
	<path class="st1" d="M76.2,19.1c0,2,0,2-2,2c-2,0-2,0-2-2c0-2.1,0-2.1,2.1-2.1C76.2,16.9,76.2,16.9,76.2,19.1z"/>
	<path class="st1" d="M74.2,21.6c2,0,2,0,2,1.9c0,2.2,0,2.2-2.2,2.2c-1.9,0-1.9,0-1.9-1.8c0-0.1,0-0.1,0-0.2
		C72.2,21.6,72.2,21.6,74.2,21.6z"/>
	<path class="st1" d="M51.2,26.2c2,0,2,0,2,2c0,2,0,2-2,2c-2.1,0-2.1,0-2.1-2.1C49.1,26.2,49.1,26.2,51.2,26.2z"/>
	<path class="st1" d="M60.4,26.2c2,0,2,0,2,2c0,2,0,2-2,2c-2.1,0-2.1,0-2.1-2C58.3,26.2,58.3,26.2,60.4,26.2z"/>
	<path class="st1" d="M62.9,28.1c0-1.9,0-1.9,1.9-1.9c2.2,0,2.2,0,2.2,2.2c0,1.8,0,1.8-1.8,1.8c-0.1,0-0.2,0-0.2,0
		C62.9,30.2,62.9,30.2,62.9,28.1z"/>
	<path class="st1" d="M69.6,26.2c2.1,0,2.1,0,2.1,2.1c0,2,0,2-2,2c-2.2,0-2.2,0-2.2-2.2C67.5,26.2,67.5,26.2,69.6,26.2z"/>
	<path class="st1" d="M104.4,88.1c0-2,0-2,2-2c2.1,0,2.1,0,2.1,2.1c0,1.9,0,1.9-1.9,1.9c-0.1,0-0.2,0-0.2,0
		C104.4,90.1,104.4,90.1,104.4,88.1z"/>
	<path class="st1" d="M115.7,48.7c-2.1,0-2.1,0-2.1-2.1c0-2,0-2,2-2c2.1,0,2.1,0,2.1,2.1C117.7,48.7,117.7,48.7,115.7,48.7z"/>
	<path class="st1" d="M94.7,46.8c0,1.9,0,1.9-1.9,1.9c-2.1,0-2.1,0-2.1-2.1c0-1.9,0-1.9,1.9-1.9C94.7,44.6,94.7,44.6,94.7,46.8z"/>
	<path class="st1" d="M30.1,79c0,1.9,0,1.9-1.9,1.9c-2.1,0-2.1,0-2.1-2.1c0-1.9,0-1.9,1.9-1.9C30.1,76.9,30.1,76.9,30.1,79z"/>
	<path class="st1" d="M30.7,78.8c0-1.9,0-1.9,1.9-1.9c2.1,0,2.1,0,2.1,2.1c0,2,0,2-2,2C30.7,80.9,30.7,80.9,30.7,78.8z"/>
	<path class="st1" d="M74.2,94.8c-2.1,0-2.1,0-2.1-2.1c0-2,0-2,2-2c2.1,0,2.1,0,2.1,2.1C76.2,94.8,76.2,94.8,74.2,94.8z"/>
	<path class="st1" d="M78.8,90.7c2,0,2,0,2,2c0,2,0,2-2,2s-2,0-2-2C76.8,90.7,76.8,90.7,78.8,90.7z"/>
	<path class="st1" d="M44,78.8c0,2.1,0,2.1-2.1,2.1c-2,0-2,0-2-2c0-2.1,0-2.1,2.1-2.1C44,76.9,44,76.9,44,78.8z"/>
	<path class="st1" d="M28.1,48.7c-2,0-2,0-2-2.1c0-2,0-2,2-2c2.1,0,2.1,0,2.1,2.1C30.1,48.7,30.1,48.7,28.1,48.7z"/>
	<path class="st1" d="M48.6,42.1c0,2,0,2-2,2c-2,0-2,0-2-2c0-2,0-2,1.9-2C48.6,40,48.6,40,48.6,42.1z"/>
	<path class="st1" d="M7.1,46.7c0,2,0,2-1.9,2c-2.1,0-2.1,0-2.1-2.2c0-1.9,0-1.9,1.8-1.9c0,0,0.1,0,0.1,0
		C7.1,44.6,7.1,44.6,7.1,46.7z"/>
	<path class="st1" d="M44,42.1c0,2,0,2-2,2c-2,0-2,0-2-2c0-2,0-2,2-2C44,40,44,40,44,42.1z"/>
	<path class="st1" d="M5.2,72.3c1.9,0,1.9,0,1.9,1.9c0,2.1,0,2.1-2.1,2.1c-1.9,0-1.9,0-1.9-1.9C3.1,72.3,3.1,72.3,5.2,72.3z"/>
	<path class="st1" d="M76.2,78.9c0,2,0,2-2,2c-2,0-2,0-2-2c0-2,0-2,2-2C76.2,76.9,76.2,76.9,76.2,78.9z"/>
	<path class="st1" d="M80.8,78.9c0,2,0,2-2,2c-2,0-2,0-2-2c0-2,0-2,2-2C80.8,76.9,80.8,76.9,80.8,78.9z"/>
	<path class="st1" d="M85.4,79c0,1.9,0,1.9-1.9,1.9c-2.1,0-2.1,0-2.1-2.1c0-1.9,0-1.9,1.9-1.9C85.4,76.9,85.4,76.9,85.4,79z"/>
	<path class="st1" d="M90,79c0,1.9,0,1.9-1.9,1.9c-2.1,0-2.1,0-2.1-2.1c0-1.9,0-1.9,1.9-1.9C90,76.9,90,76.9,90,79z"/>
	<path class="st1" d="M37.4,44.1c-2,0-2,0-2-2.1c0-2,0-2,2-2c2,0,2,0,2,2.1C39.3,44.1,39.3,44.1,37.4,44.1z"/>
	<path class="st1" d="M32.8,44.1c-2,0-2,0-2-2.1c0-2,0-2,2-2c2.1,0,2.1,0,2.1,2.1C34.7,44.1,34.7,44.1,32.8,44.1z"/>
	<path class="st1" d="M92.7,76.9c2,0,2,0,2,1.9c0,2.1,0,2.1-2.1,2.1c-2,0-2,0-2-1.9C90.6,76.9,90.6,76.9,92.7,76.9z"/>
	<path class="st1" d="M5.1,40c2,0,2,0,2,2c0,2,0,2-2,2c-2,0-2,0-2-2C3.1,40,3.1,40,5.1,40z"/>
	<path class="st1" d="M78.7,39.4c-1.9,0-1.9,0-1.9-1.9c0-2.1,0-2.1,2.1-2.1c1.9,0,1.9,0,1.9,1.9C80.8,39.4,80.8,39.4,78.7,39.4z"/>
	<path class="st1" d="M76.8,32.7c0-1.9,0-1.9,1.9-1.9c2.1,0,2.1,0,2.1,2.1c0,1.9,0,1.9-1.9,1.9C76.8,34.8,76.8,34.8,76.8,32.7z"/>
	<path class="st1" d="M85.4,46.8c0,1.9,0,1.9-1.9,1.9c-2.1,0-2.1,0-2.1-2.1c0-1.9,0-1.9,1.9-1.9C85.4,44.6,85.4,44.6,85.4,46.8z"/>
	<path class="st1" d="M28.1,76.3c-2,0-2,0-2-2c0-2,0-2,2-2s2,0,2,2C30.1,76.3,30.1,76.3,28.1,76.3z"/>
	<path class="st1" d="M115.6,80.9c-2,0-2,0-2-1.9c0-2.1,0-2.1,2-2.1c2,0,2,0,2,2C117.7,80.9,117.7,80.9,115.6,80.9z"/>
	<path class="st1" d="M39.9,32.7c0-1.9,0-1.9,1.9-1.9c2.1,0,2.1,0,2.1,2.1c0,1.9,0,1.9-1.9,1.9C39.9,34.8,39.9,34.8,39.9,32.7z"/>
	<path class="st1" d="M42,85.5c-2,0-2,0-2-2c0-2,0-2,2-2c2,0,2,0,2,2C44,85.5,44,85.5,42,85.5z"/>
	<path class="st1" d="M80.8,28.2c0,2,0,2-2.1,2c-1.9,0-1.9,0-1.9-1.9c0-2.1,0-2.1,2.1-2.1C80.8,26.2,80.8,26.2,80.8,28.2z"/>
	<path class="st1" d="M46.6,81.5c2,0,2,0,2,2c0,2,0,2-2,2c-2,0-2,0-2-2C44.5,81.5,44.5,81.5,46.6,81.5z"/>
	<path class="st1" d="M39.3,74.3c0,2,0,2-2,2c-2,0-2,0-2-2c0-2,0-2,2-2C39.3,72.3,39.3,72.3,39.3,74.3z"/>
	<path class="st1" d="M74.2,26.2c2,0,2,0,2,2c0,2,0,2-1.9,2c-2.1,0-2.1,0-2.1-2.1C72.2,26.2,72.2,26.2,74.2,26.2z"/>
	<path class="st1" d="M42,26.2c2,0,2,0,2,2c0,2.1,0,2.1-2.1,2.1c-2,0-2,0-2-2C39.9,26.2,39.9,26.2,42,26.2z"/>
	<path class="st1" d="M78.7,7.2c-1.9,0-1.9,0-1.9-1.9c0-2.2,0-2.2,2.1-2.2c1.9,0,1.9,0,1.9,1.9C80.8,7.2,80.8,7.2,78.7,7.2z"/>
	<path class="st1" d="M48.6,5.1c0,2.1,0,2.1-2.1,2.1c-2,0-2,0-2-2c0-2.1,0-2.1,2.1-2.1C48.6,3.2,48.6,3.2,48.6,5.1z"/>
	<path class="st1" d="M46.6,72.3c2,0,2,0,2,1.9c0,2.1,0,2.1-2.1,2.1c-1.9,0-1.9,0-1.9-1.8c0,0,0-0.1,0-0.1
		C44.5,72.3,44.5,72.3,46.6,72.3z"/>
	<path class="st1" d="M74.1,85.5c-2,0-2,0-2-1.9c0-2.1,0-2.1,2-2.1c2,0,2,0,2,1.9C76.2,85.5,76.2,85.5,74.1,85.5z"/>
	<path class="st1" d="M78.8,85.5c-2.1,0-2.1,0-2.1-2.1c0-1.9,0-1.9,2-1.9c2.1,0,2.1,0,2.1,2.1C80.8,85.5,80.8,85.5,78.8,85.5z"/>
	<path class="st1" d="M78.8,44.6c2,0,2,0,2,2c0,2,0,2-2,2c-2,0-2,0-2-2C76.8,44.6,76.8,44.6,78.8,44.6z"/>
	<path class="st1" d="M115.7,85.5c-2,0-2,0-2-2.1c0-1.9,0-1.9,2-1.9c2.1,0,2.1,0,2.1,2.1C117.7,85.5,117.7,85.5,115.7,85.5z"/>
	<path class="st1" d="M94.7,42.2c0,1.9,0,1.9-1.9,1.9c-2.1,0-2.1,0-2.1-2.1c0-1.9,0-1.9,1.9-1.9C94.7,40,94.7,40,94.7,42.2z"/>
	<path class="st1" d="M44,88.2c0,2,0,2-1.9,2c-2.1,0-2.1,0-2.1-2.2c0-1.9,0-1.9,1.8-1.9c0,0,0.1,0,0.1,0C44,86.1,44,86.1,44,88.2z"
		/>
	<path class="st1" d="M48.6,46.8c0,1.9,0,1.9-1.9,1.9c-2.1,0-2.1,0-2.1-2.1c0-1.9,0-1.9,1.9-1.9C48.6,44.6,48.6,44.6,48.6,46.8z"/>
	<path class="st1" d="M80.8,74.3c0,2,0,2-2,2c-2.1,0-2.1,0-2.1-2.1c0-1.9,0-1.9,1.9-1.9C80.8,72.3,80.8,72.3,80.8,74.3z"/>
	<path class="st1" d="M83.4,72.3c2,0,2,0,2,1.9c0,2.1,0,2.1-2.2,2.1c-1.9,0-1.9,0-1.9-1.8c0,0,0-0.1,0-0.1
		C81.4,72.3,81.4,72.3,83.4,72.3z"/>
	<path class="st1" d="M41.9,48.7c-1.9,0-1.9,0-1.9-2c0-2.1,0-2.1,2.1-2.1c1.9,0,1.9,0,1.9,2C44,48.7,44,48.7,41.9,48.7z"/>
	<path class="st1" d="M113.6,74.2c0-1.9,0-1.9,1.9-1.9c2.1,0,2.1,0,2.1,2.1c0,1.9,0,1.9-1.9,1.9C113.6,76.3,113.6,76.3,113.6,74.2z"
		/>
	<path class="st1" d="M76.2,88c0,2.1,0,2.1-2.1,2.1c-2,0-2,0-2-2c0-2,0-2,2-2c0,0,0.1,0,0.1,0C76.2,86.1,76.2,86.1,76.2,88z"/>
	<path class="st1" d="M80.8,88.2c0,2,0,2-1.9,2c-2.1,0-2.1,0-2.1-2c0-2,0-2,2-2C80.8,86.1,80.8,86.1,80.8,88.2z"/>
	<path class="st1" d="M90,88.2c0,1.9,0,1.9-1.9,1.9c-2.2,0-2.2,0-2.2-2.2c0-1.8,0-1.8,1.8-1.8c0,0,0.1,0,0.1,0
		C90,86.1,90,86.1,90,88.2z"/>
	<path class="st1" d="M5.1,76.9c2,0,2,0,2,1.9c0,2.1,0,2.1-2.1,2.1c-2,0-2,0-2-1.9C3.1,76.9,3.1,76.9,5.1,76.9z"/>
	<path class="st1" d="M44,115.7c0,2.1,0,2.1-2.1,2.1c-1.9,0-1.9,0-1.9-1.9c0-2.1,0-2.1,2.1-2.1C44,113.7,44,113.7,44,115.7z"/>
	<path class="st1" d="M85.4,42.1c0,2,0,2-2,2c-2,0-2,0-2-2c0-2,0-2,2-2C85.4,40,85.4,40,85.4,42.1z"/>
	<path class="st1" d="M39.3,46.7c0,2,0,2-2,2c-2,0-2,0-2-2c0-2,0-2,2-2C39.3,44.6,39.3,44.6,39.3,46.7z"/>
	<path class="st1" d="M74.3,113.7c1.9,0,1.9,0,1.9,2c0,2.1,0,2.1-2.1,2.1c-1.9,0-1.9,0-1.9-1.9C72.2,113.7,72.2,113.7,74.3,113.7z"
		/>
	<path class="st1" d="M85.4,115.7c0,2,0,2-2,2c-2,0-2,0-2-2c0-2,0-2,2-2C85.4,113.7,85.4,113.7,85.4,115.7z"/>
	<path class="st1" d="M115.5,90.1c-1.9,0-1.9,0-1.9-1.9c0-2.1,0-2.1,2.2-2.1c1.9,0,1.9,0,1.9,1.9C117.7,90.1,117.7,90.1,115.5,90.1z
		"/>
	<path class="st1" d="M74.1,44.1c-2,0-2,0-2-1.9c0-2.1,0-2.1,2.1-2.1c2,0,2,0,2,2C76.2,44.1,76.2,44.1,74.1,44.1z"/>
	<path class="st1" d="M48.6,92.8c0,2,0,2-2,2c-2,0-2,0-2-2c0-2,0-2,2-2C48.6,90.7,48.6,90.7,48.6,92.8z"/>
</g>
</svg>
